SplineFontDB: 3.0
FontName: AnkaCoder-C75-SkelB
FullName: Anna Shugol/Coder Narrow Bold
FamilyName: Anka/Coder Narrow
Weight: Bold
Copyright: Copyright (c) 2010, Andrey Makarov (makarov@bmstu.ru, mka-at-mailru@mail.ru),\nwith Reserved Font Name Anka/Coder Narrow.\n---------------------------------\nThe Anka/* are members of Anna Shugol name font family; March 2010
Version: 001.000
StrokeWidth: 100
ItalicAngle: 0
UnderlinePosition: -292
UnderlineWidth: 50
Ascent: 1638
Descent: 410
LayerCount: 2
Layer: 0 0 "Back"  1
Layer: 1 0 "Fore"  0
StrokedFont: 1
NeedsXUIDChange: 1
XUID: [1021 77 1780377344 16371661]
UseXUID: 1
BaseHoriz: 0
FSType: 8
OS2Version: 1
OS2_WeightWidthSlopeOnly: 0
OS2_UseTypoMetrics: 1
CreationTime: 1260467214
ModificationTime: 1268390275
PfmFamily: 49
TTFWeight: 700
TTFWidth: 3
LineGap: 0
VLineGap: 0
Panose: 2 11 8 9 2 5 2 2 2 4
OS2TypoAscent: 0
OS2TypoAOffset: 1
OS2TypoDescent: 0
OS2TypoDOffset: 1
OS2TypoLinegap: 0
OS2WinAscent: 0
OS2WinAOffset: 1
OS2WinDescent: 0
OS2WinDOffset: 1
HheadAscent: 0
HheadAOffset: 1
HheadDescent: 0
HheadDOffset: 1
OS2SubXSize: 553
OS2SubYSize: 1229
OS2SubXOff: 0
OS2SubYOff: 283
OS2SupXSize: 553
OS2SupYSize: 1229
OS2SupXOff: 0
OS2SupYOff: 977
OS2StrikeYSize: 102
OS2StrikeYPos: 530
OS2FamilyClass: 1285
OS2Vendor: 'AVM1'
OS2CodePages: 40000097.cfd60000
OS2UnicodeRanges: 800002ef.000079eb.00000000.00000000
MacStyle: 1
DEI: 91125
ShortTable: maxp 16
  0
  0
  0
  0
  0
  0
  0
  2
  1
  0
  9
  0
  256
  0
  0
  0
EndShort
TtTable: prep
PUSHW_1
 511
SCANCTRL
SVTCA[y-axis]
MPPEM
PUSHB_1
 8
LT
IF
PUSHB_2
 1
 1
INSTCTRL
EIF
PUSHB_2
 70
 6
CALL
IF
POP
PUSHB_1
 16
EIF
MPPEM
PUSHB_1
 20
GT
IF
POP
PUSHB_1
 128
EIF
SCVTCI
PUSHB_1
 6
CALL
NOT
IF
EIF
EndTTInstrs
TtTable: fpgm
PUSHB_1
 0
FDEF
PUSHB_1
 0
SZP0
MPPEM
PUSHB_1
 42
LT
IF
PUSHB_1
 74
SROUND
EIF
PUSHB_1
 0
SWAP
MIAP[rnd]
RTG
PUSHB_1
 6
CALL
IF
RTDG
EIF
MPPEM
PUSHB_1
 42
LT
IF
RDTG
EIF
DUP
MDRP[rp0,rnd,grey]
PUSHB_1
 1
SZP0
MDAP[no-rnd]
RTG
ENDF
PUSHB_1
 1
FDEF
DUP
DUP

StartChar: exclam
Encoding: 33 33 1
Width: 922
VWidth: 1708
GlyphClass: 2
Flags: W
HStem: -23 236<363.831 557.094> 1398 20G<428.5 489>
VStem: 336 249<6.3129 184.037 1384.21 1392.37> 371 182<384 808.823>
LayerCount: 2
Fore
SplineSet
585 95 m 0xe0
 585 26 526 -23 460 -23 c 0
 396 -23 336 27 336 95 c 0
 336 157 390 213 460 213 c 0
 525 213 585 165 585 95 c 0xe0
457 1418 m 0
 521 1418 583 1370 583 1273 c 1
 553 384 l 1
 371 384 l 1xd0
 341 1274 l 1
 341 1370 400 1418 457 1418 c 0
EndSplineSet
Validated: 3073
EndChar

StartChar: quotedbl
Encoding: 34 34 2
Width: 922
VWidth: 1708
GlyphClass: 2
Flags: W
HStem: 1406 20G<265 323 675 733>
VStem: 122 268<1120 1319> 532 268<1120 1319>
LayerCount: 2
Fore
SplineSet
274 1077 m 6
 262 1055 228 1038 198 1038 c 7
 148 1038 122 1085 122 1120 c 7
 122 1125 124 1134 125 1139 c 6
 180 1347 l 6
 191 1388 240 1426 290 1426 c 7
 356 1426 390 1374 390 1319 c 7
 390 1301 386 1278 378 1265 c 6
 274 1077 l 6
684 1077 m 6
 672 1055 638 1038 608 1038 c 7
 558 1038 532 1085 532 1120 c 7
 532 1125 534 1134 535 1139 c 6
 590 1347 l 6
 601 1388 650 1426 700 1426 c 7
 766 1426 800 1374 800 1319 c 7
 800 1301 796 1278 788 1265 c 6
 684 1077 l 6
EndSplineSet
EndChar

StartChar: numbersign
Encoding: 35 35 3
Width: 922
VWidth: 1708
GlyphClass: 2
Flags: MW
LayerCount: 2
Fore
SplineSet
-24 0 m 1
 154 1333 l 1
 946 1333 l 1
 768 0 l 1
 -24 0 l 1
0 956 m 25
 922 956 l 25
0 416 m 25
 922 416 l 25
745 1425 m 25
 542.171 -99.334 l 25
375 1425 m 25
 172.171 -99.334 l 25
EndSplineSet
EndChar

StartChar: dollar
Encoding: 36 36 4
Width: 922
VWidth: 2334
GlyphClass: 2
Flags: MW
LayerCount: 2
Fore
SplineSet
461 1494 m 25
 461 -93 l 25
139 357 m 0
 139 203 294 67 452 67 c 10
 470 67 l 18
 624 67 760 183 760 337 c 10
 760 367 l 18
 760 471 706.913 615.403 583 683.754 c 2
 319.626 818 l 2
 229.858 863.756 188 956.26 188 1033 c 2
 188 1063 l 2
 188 1218 303 1333 458 1333 c 10
 465 1333 l 18
 597.814 1333 708.447 1260.41 744 1144.98 c 1
 751.813 1119.62 756 1092.19 756 1063 c 0
EndSplineSet
EndChar

StartChar: percent
Encoding: 37 37 5
Width: 922
VWidth: 1708
GlyphClass: 2
Flags: MW
LayerCount: 2
Fore
SplineSet
90 93 m 25
 832 1308 l 25
252 1333 m 3
 358 1333 412 1246 412 1145 c 3
 412 1048 358 957 252 957 c 3
 148 957 92 1044 92 1145 c 3
 92 1248 149 1333 252 1333 c 3
670 439 m 3
 776 439 830 353 830 252 c 3
 830 154 776 64 670 64 c 3
 566 64 510 151 510 252 c 3
 510 355 567 439 670 439 c 3
EndSplineSet
EndChar

StartChar: ampersand
Encoding: 38 38 6
Width: 922
VWidth: 2334
GlyphClass: 2
Flags: MW
LayerCount: 2
Fore
SplineSet
820 10 m 1
 397 779 l 2
 344 865 269 1004 269 1108 c 2
 269 1130 l 2
 269 1246 336 1333 452 1333 c 10
 471 1333 l 18
 592 1333 666 1239 666 1125 c 2
 666 1098 l 2
 666 1017 605 956 568 922 c 2
 264 639 l 1
 190 559 139 471 139 367 c 10
 139 337 l 18
 139 183 275 67 429 67 c 10
 447 67 l 18
 573 67 660 153 707 272 c 2
 832 590 l 0
EndSplineSet
EndChar

StartChar: quotesingle
Encoding: 39 39 7
Width: 922
VWidth: 1708
GlyphClass: 2
Flags: W
HStem: 1406 20G<470 528>
LayerCount: 2
Fore
SplineSet
478 1077 m 6
 466 1055 434 1038 402 1038 c 7
 352 1038 326 1085 326 1120 c 7
 326 1125 326 1135 326 1139 c 6
 386 1347 l 6
 394 1388 444 1426 496 1426 c 7
 560 1426 596 1374 596 1319 c 7
 596 1301 592 1278 584 1265 c 6
 478 1077 l 6
EndSplineSet
EndChar

StartChar: parenleft
Encoding: 40 40 8
Width: 922
VWidth: 1708
GlyphClass: 2
Flags: MW
LayerCount: 2
Fore
SplineSet
740 1480 m 17
 537 1320 350 1040 350 700 c 27
 350 360 537.333 80.3333 740 -80 c 9
EndSplineSet
EndChar

StartChar: parenright
Encoding: 41 41 9
Width: 922
VWidth: 1708
GlyphClass: 2
Flags: MW
LayerCount: 2
Fore
SplineSet
182 1480 m 17
 385 1320 572 1040 572 700 c 27
 572 360 384.667 80.333 182 -80 c 9
EndSplineSet
EndChar

StartChar: asterisk
Encoding: 42 42 10
Width: 922
VWidth: 1708
GlyphClass: 2
Flags: MW
LayerCount: 2
Fore
SplineSet
246.459 304.709 m 25
 461 600 l 25
 461 965 l 25
461 600 m 25
 675.541 304.709 l 25
808.135 712.791 m 25
 461 600 l 25
 113.865 712.791 l 25
EndSplineSet
EndChar

StartChar: plus
Encoding: 43 43 11
Width: 922
VWidth: 1708
GlyphClass: 2
Flags: MW
LayerCount: 2
Fore
SplineSet
461 189 m 29
 461 1011 l 29
50 600 m 29
 872 600 l 29
EndSplineSet
EndChar

StartChar: comma
Encoding: 44 44 12
Width: 922
VWidth: 1947
GlyphClass: 2
Flags: MW
LayerCount: 2
Fore
SplineSet
590 29 m 21
 590 -102 576 -306 314 -334 c 13
 294 -260 l 21
 363 -235 478 -158 375 -69 c 13
 590 29 l 21
590 29 m 4
 590 -40 537 -101 460 -101 c 4
 386 -101 331 -41 331 29 c 4
 331 97 382 159 460 159 c 4
 536 159 590 99 590 29 c 4
EndSplineSet
EndChar

StartChar: hyphen
Encoding: 45 45 13
Width: 922
VWidth: 1708
GlyphClass: 2
Flags: MW
LayerCount: 2
Fore
SplineSet
50 600 m 29
 872 600 l 29
EndSplineSet
EndChar

StartChar: period
Encoding: 46 46 14
Width: 922
VWidth: 1708
GlyphClass: 2
Flags: MW
LayerCount: 2
Fore
SplineSet
590 29 m 4
 590 -40 537 -101 460 -101 c 4
 386 -101 331 -41 331 29 c 4
 331 97 382 159 460 159 c 4
 536 159 590 99 590 29 c 4
EndSplineSet
EndChar

StartChar: slash
Encoding: 47 47 15
Width: 922
VWidth: 1708
GlyphClass: 2
Flags: MW
LayerCount: 2
Fore
SplineSet
182 -25 m 29
 740 1425 l 29
EndSplineSet
EndChar

StartChar: zero
Encoding: 48 48 16
Width: 922
VWidth: 1708
GlyphClass: 2
Flags: MW
LayerCount: 2
Fore
SplineSet
0 1476 m 1
 831 1476 l 1
 922 1186 l 1
 922 -51 l 1
 94 -51 l 1
 0 219 l 1
 0 1476 l 1
-21 -25 m 25
 942 1425 l 25
461 1333 m 7
 708 1333 750 1024.35 750 700 c 7
 750 369 702.207 67 461 67 c 7
 213 67 172 383.733 172 700 c 7
 172 1024.1 216 1333 461 1333 c 7
EndSplineSet
EndChar

StartChar: one
Encoding: 49 49 17
Width: 922
VWidth: 1708
GlyphClass: 2
Flags: MW
LayerCount: 2
Fore
SplineSet
0 335 m 5
 316 735 l 5
 316 921 l 5
 237 1024 l 5
 528 1425 l 5
 922 1425 l 5
 922 -25 l 5
 0 -25 l 5
 0 335 l 5
560 0 m 29
 560 1333 l 29
 148 966 l 29
EndSplineSet
EndChar

StartChar: two
Encoding: 50 50 18
Width: 922
VWidth: 2334
GlyphClass: 2
Flags: MW
LayerCount: 2
Fore
SplineSet
90 -25 m 1
 90 1479 l 1
 922 1479 l 1
 922 -25 l 1
 90 -25 l 1
193 1149 m 5
 239 1258 298 1333 452 1333 c 14
 470 1333 l 22
 650 1333 740 1242 740 1064 c 14
 740 1024 l 22
 740 965.507 705.254 896.897 648.636 822 c 6
 317.534 384 l 6
 252.933 298.542 211.256 196.131 182 92 c 5
 832 92 l 13
EndSplineSet
EndChar

StartChar: three
Encoding: 51 51 19
Width: 922
VWidth: 2334
GlyphClass: 2
Flags: MW
LayerCount: 2
Fore
SplineSet
200 1158 m 5
 240 1264 346 1333 452 1333 c 14
 470 1333 l 22
 605 1333 695 1218 695 1063 c 14
 695 1022 l 22
 695 912 605 777 471 777 c 5
 302 777 l 13
 470 777 l 22
 650 777 740 641 740 417 c 14
 740 397 l 22
 740 177 650 67 470 67 c 14
 452 67 l 22
 330 67 182 156 182 337 c 5
EndSplineSet
EndChar

StartChar: four
Encoding: 52 52 20
Width: 922
VWidth: 1708
GlyphClass: 2
Flags: MW
LayerCount: 2
Fore
SplineSet
90 1425 m 5
 832 1425 l 5
 832 0 l 5
 90 0 l 5
 90 1425 l 5
672 0 m 29
 672 1335 l 29
 165 427 l 29
 830 427 l 29
EndSplineSet
EndChar

StartChar: five
Encoding: 53 53 21
Width: 922
VWidth: 2334
GlyphClass: 2
Flags: MW
LayerCount: 2
Fore
SplineSet
0 1425 m 1
 922 1425 l 1
 922 -54 l 1
 0 -54 l 1
 0 173 l 1
 370 393 l 1
 370 556 l 1
 0 813 l 1
 0 1425 l 1
774 1308 m 1
 272 1308 l 1
 204 675 l 1
182 495 m 1
 182 714 341 847 452 847 c 10
 470 847 l 18
 650 847 740 711 740 487 c 10
 740 427 l 18
 740 201 650 67 470 67 c 10
 402 67 l 18
 289 67 132 156 132 337 c 1
EndSplineSet
EndChar

StartChar: six
Encoding: 54 54 22
Width: 922
VWidth: 2334
GlyphClass: 2
Flags: MW
LayerCount: 2
Fore
SplineSet
182 432 m 25
 182 957 l 17
 183 1152 272 1333 452 1333 c 10
 470 1333 l 18
 596.123 1333 678.551 1288.32 716.252 1200 c 1
182 487 m 10
 182 427 l 18
 182 201 302 67 452 67 c 10
 470 67 l 18
 650 67 740 201 740 427 c 10
 740 487 l 18
 740 711 650 847 470 847 c 10
 452 847 l 18
 272 847 182 711 182 487 c 10
EndSplineSet
EndChar

StartChar: seven
Encoding: 55 55 23
Width: 922
VWidth: 1708
GlyphClass: 2
Flags: MW
LayerCount: 2
Fore
SplineSet
0 1485 m 1
 832 1485 l 1
 832 0 l 1
 0 0 l 1
 0 1485 l 1
90 1308 m 25
 740 1308 l 17
 525.479 876.414 342 427 258 -45 c 9
EndSplineSet
EndChar

StartChar: eight
Encoding: 56 56 24
Width: 922
VWidth: 2334
GlyphClass: 2
Flags: MW
LayerCount: 2
Fore
SplineSet
470 1333 m 14
 452 1333 l 22
 317 1333 227 1221 227 1064 c 6
 227 1024 l 6
 227 912 317 777 451 777 c 14
 471 777 l 22
 605 777 695 911.5 695 1022.5 c 14
 695 1063 l 22
 695 1218 605 1333 470 1333 c 14
182 417 m 14
 182 397 l 22
 182 180 302 67 452 67 c 14
 470 67 l 22
 650 67 740 177 740 397 c 14
 740 417 l 22
 740 641 650 777 470 777 c 14
 452 777 l 22
 272 777 182 641 182 417 c 14
EndSplineSet
EndChar

StartChar: nine
Encoding: 57 57 25
Width: 922
VWidth: 2334
GlyphClass: 2
Flags: MW
LayerCount: 2
Fore
SplineSet
740 968 m 25
 740 443 l 17
 740 248 650 67 470 67 c 10
 452 67 l 18
 326 67 243 112 206 200 c 1
740 913 m 18
 740 689 650 553 470 553 c 10
 452 553 l 18
 272 553 182 689 182 913 c 10
 182 973 l 18
 182 1199 272 1333 452 1333 c 10
 470 1333 l 18
 620 1333 740 1199 740 973 c 10
 740 913 l 18
EndSplineSet
EndChar

StartChar: less
Encoding: 60 60 28
Width: 922
VWidth: 1708
GlyphClass: 2
Flags: MW
LayerCount: 2
Fore
SplineSet
90 1332 m 5
 832 1332 l 5
 832 -110 l 5
 90 -110 l 5
 90 1332 l 5
902 1160 m 29
 182 600 l 29
 902 40 l 29
EndSplineSet
EndChar

StartChar: equal
Encoding: 61 61 29
Width: 922
VWidth: 1708
GlyphClass: 2
Flags: MW
LayerCount: 2
Fore
SplineSet
50 810 m 29
 872 810 l 29
50 400 m 29
 872 400 l 29
EndSplineSet
EndChar

StartChar: greater
Encoding: 62 62 30
Width: 922
VWidth: 1708
GlyphClass: 2
Flags: MW
LayerCount: 2
Fore
SplineSet
90 1332 m 1
 832 1332 l 1
 832 -110 l 1
 90 -110 l 1
 90 1332 l 1
20 40 m 25
 740 600 l 25
 20 1160 l 25
EndSplineSet
EndChar

StartChar: question
Encoding: 63 63 31
Width: 922
VWidth: 1708
GlyphClass: 2
Flags: MW
LayerCount: 2
Fore
SplineSet
590 29 m 0
 590 -40 537 -101 460 -101 c 0
 386 -101 331 -41 331 29 c 0
 331 97 382 159 460 159 c 0
 536 159 590 99 590 29 c 0
461 380 m 25
 461 480 l 18
 461 700 740 821 740 1024 c 10
 740 1063 l 18
 740 1242 650 1333 470 1333 c 10
 452 1333 l 18
 272 1333 182 1242 182 1063 c 9
EndSplineSet
EndChar

StartChar: at
Encoding: 64 64 32
Width: 922
VWidth: 1708
GlyphClass: 2
Flags: MW
LayerCount: 2
Fore
SplineSet
611 968 m 2
 611 968 714 969 780 969 c 25
 780 639 l 2
 780 543 711 435 611 435 c 3
 485 435 438 541 438 702 c 3
 438 863 485 968 611 968 c 2
740 162 m 1
 666 87 549 67 461 67 c 3
 213 67 112 384 112 700 c 3
 112 1024 216 1333 461 1333 c 3
 621 1333 780 1204 780 1033 c 2
 780 340 l 17
EndSplineSet
EndChar

StartChar: B
Encoding: 66 66 33
Width: 922
VWidth: 1947
GlyphClass: 2
Flags: MW
LayerCount: 2
Fore
SplineSet
740 337 m 14
 740 485 l 22
 740 664 650 755 470 755 c 14
 182 755 l 29
 420 755 l 6
 600 755 690 844 690 1025 c 6
 690 1063 l 6
 690 1242 609 1308 420 1308 c 6
 182 1308 l 5
 182 92 l 5
 470 92 l 6
 650 92 740 156 740 337 c 14
EndSplineSet
EndChar

StartChar: C
Encoding: 67 67 34
Width: 922
VWidth: 1947
GlyphClass: 2
Flags: MW
LayerCount: 2
Fore
SplineSet
713.015 315 m 5
 674.56 167.008 599.805 67 461 67 c 7
 213 67 172 383.733 172 700 c 7
 172 1024.1 216 1333 461 1333 c 7
 605.737 1333 680.082 1227.02 716.834 1074 c 5
EndSplineSet
EndChar

StartChar: D
Encoding: 68 68 35
Width: 922
VWidth: 1947
GlyphClass: 2
Flags: MW
LayerCount: 2
Fore
SplineSet
461 1308 m 6
 708 1308 750 1024.35 750 700 c 7
 750 369 702.207 92 461 92 c 6
 182 92 l 5
 182 1308 l 5
 461 1308 l 6
EndSplineSet
EndChar

StartChar: E
Encoding: 69 69 36
Width: 922
VWidth: 1708
GlyphClass: 2
Flags: MW
LayerCount: 2
Fore
SplineSet
740 755 m 29
 182 755 l 29
832 1308 m 29
 182 1308 l 29
 182 93 l 29
 832 93 l 29
EndSplineSet
EndChar

StartChar: F
Encoding: 70 70 37
Width: 922
VWidth: 1708
GlyphClass: 2
Flags: MW
LayerCount: 2
Fore
SplineSet
740 755 m 25
 182 755 l 25
832 1308 m 25
 182 1308 l 25
 182 93 l 25
EndSplineSet
EndChar

StartChar: G
Encoding: 71 71 38
Width: 922
VWidth: 1947
GlyphClass: 2
Flags: MW
LayerCount: 2
Fore
SplineSet
716.834 1074 m 1
 680.082 1227.02 605.737 1333 461 1333 c 3
 216 1333 172 1024.1 172 700 c 3
 172 383.733 213 67 461 67 c 3
 599.805 67 702.545 141.008 741 289 c 9
 741 617 l 1
 504 617 l 25
EndSplineSet
EndChar

StartChar: H
Encoding: 72 72 39
Width: 922
VWidth: 1947
GlyphClass: 2
Flags: MW
LayerCount: 2
Fore
SplineSet
182 700 m 25
 740 700 l 25
740 1400 m 25
 740 0 l 25
182 1400 m 25
 182 0 l 25
EndSplineSet
EndChar

StartChar: I
Encoding: 73 73 40
Width: 922
VWidth: 1947
GlyphClass: 2
Flags: MW
LayerCount: 2
Fore
SplineSet
90 92 m 29
 832 92 l 29
461 92 m 21
90 1308 m 29
 832 1308 l 5
461 1308.59 m 5
 461 92 l 13
EndSplineSet
EndChar

StartChar: J
Encoding: 74 74 41
Width: 922
VWidth: 1947
GlyphClass: 2
Flags: MW
LayerCount: 2
Fore
SplineSet
147.473 240 m 5
 174.769 123.802 253.539 67 362 67 c 14
 380 67 l 22
 515 67 605 156.004 605 337 c 14
 605 1308 l 29
318 1308 m 29
 852 1308 l 29
EndSplineSet
EndChar

StartChar: K
Encoding: 75 75 42
Width: 922
VWidth: 1947
GlyphClass: 2
Flags: MW
LayerCount: 2
Fore
SplineSet
0 1400 m 1
 922 1400 l 1
 922 0 l 1
 0 0 l 1
 0 1400 l 1
832 -141 m 25
 384 765 l 25
819 1524 m 25
 182 485 l 25
183 1400 m 25
 183 0 l 25
EndSplineSet
EndChar

StartChar: L
Encoding: 76 76 43
Width: 922
VWidth: 1947
GlyphClass: 2
Flags: MW
LayerCount: 2
Fore
SplineSet
182 1400 m 29
 182 93 l 29
 832 93 l 29
EndSplineSet
EndChar

StartChar: M
Encoding: 77 77 44
Width: 922
VWidth: 1947
GlyphClass: 2
Flags: MW
LayerCount: 2
Fore
SplineSet
0 0.331055 m 5
 0 1400.33 l 5
 922 1400.33 l 5
 922 0.331055 l 5
 610.5 0.331055 l 5
 610 242.331 l 5
 317 242.331 l 5
 317 0.331055 l 5
 0 0.331055 l 5
96 -74.6689 m 29
 202 1401.33 l 29
 461 351.331 l 29
 720 1401.33 l 29
 825.998 -75 l 29
EndSplineSet
EndChar

StartChar: N
Encoding: 78 78 45
Width: 922
VWidth: 1947
GlyphClass: 2
Flags: MW
LayerCount: 2
Fore
SplineSet
0 1400 m 5
 922 1400 l 5
 922 0 l 5
 0 0 l 5
 0 1400 l 5
182 0 m 29
 182 1333 l 29
 740 66 l 29
 740 1400 l 29
EndSplineSet
EndChar

StartChar: O
Encoding: 79 79 46
Width: 922
VWidth: 1947
GlyphClass: 2
Flags: MW
LayerCount: 2
Fore
SplineSet
461 1333 m 7
 708 1333 750 1024.35 750 700 c 7
 750 369 702.207 67 461 67 c 7
 213 67 172 383.733 172 700 c 7
 172 1024.1 216 1333 461 1333 c 7
EndSplineSet
EndChar

StartChar: P
Encoding: 80 80 47
Width: 922
VWidth: 1947
GlyphClass: 2
Flags: MW
LayerCount: 2
Fore
SplineSet
182 685 m 29
 470 685 l 6
 650 685 740 774 740 955 c 6
 740 1063 l 6
 740 1242 659 1308 470 1308 c 6
 182 1308 l 5
 182 0 l 5
EndSplineSet
EndChar

StartChar: Q
Encoding: 81 81 48
Width: 922
VWidth: 1947
GlyphClass: 2
Flags: MW
LayerCount: 2
Fore
SplineSet
461 399 m 25
 740 -144 l 25
461 1333 m 3
 708 1333 750 1024.35 750 700 c 3
 750 369 702.207 67 461 67 c 3
 213 67 172 383.733 172 700 c 3
 172 1024.1 216 1333 461 1333 c 3
EndSplineSet
EndChar

StartChar: R
Encoding: 82 82 49
Width: 922
VWidth: 1947
GlyphClass: 2
Flags: MW
LayerCount: 2
Fore
SplineSet
0 1458 m 1
 922 1458 l 1
 922 0 l 1
 0 0 l 1
 0 1458 l 1
822 -102 m 29
 461 680 l 29
182 685 m 29
 470 685 l 6
 650 685 740 775 740 956 c 6
 740 1063 l 6
 740 1242 659 1308 470 1308 c 6
 182 1308 l 5
 182 0 l 5
EndSplineSet
EndChar

StartChar: S
Encoding: 83 83 50
Width: 922
VWidth: 2334
GlyphClass: 2
Flags: MW
LayerCount: 2
Fore
SplineSet
139 357 m 0
 139 203 294 67 452 67 c 10
 470 67 l 18
 624 67 760 183 760 337 c 10
 760 367 l 18
 760 471 706.913 615.403 583 683.754 c 2
 319.626 818 l 2
 229.858 863.756 188 956.26 188 1033 c 2
 188 1063 l 2
 188 1218 303 1333 458 1333 c 10
 465 1333 l 18
 597.814 1333 708.447 1260.41 744 1144.98 c 1
 751.813 1119.62 756 1092.19 756 1063 c 0
EndSplineSet
EndChar

StartChar: T
Encoding: 84 84 51
Width: 922
VWidth: 1947
GlyphClass: 2
Flags: MW
LayerCount: 2
Fore
SplineSet
461 0 m 29
 461 1308 l 29
70 1308 m 29
 852 1308 l 29
EndSplineSet
EndChar

StartChar: U
Encoding: 85 85 52
Width: 922
VWidth: 1947
GlyphClass: 2
Flags: MW
LayerCount: 2
Fore
SplineSet
182 1400 m 29
 182 337 l 22
 182 156 272 67 452 67 c 14
 470 67 l 22
 650 67 740 156 740 337 c 14
 740 1400 l 29
EndSplineSet
EndChar

StartChar: V
Encoding: 86 86 53
Width: 922
VWidth: 1708
GlyphClass: 2
Flags: MW
LayerCount: 2
Fore
SplineSet
0 -25 m 5
 0 1400 l 5
 922 1400 l 5
 922 -25 l 5
 0 -25 l 5
154.5 1425 m 29
 461 37 l 29
 766.5 1425 l 29
EndSplineSet
EndChar

StartChar: W
Encoding: 87 87 54
Width: 922
VWidth: 1947
GlyphClass: 2
Flags: MW
LayerCount: 2
Fore
SplineSet
0 1400 m 5
 317 1400 l 5
 317 1158 l 5
 610 1158 l 5
 610.5 1400 l 5
 922 1400 l 5
 922 0 l 5
 0 0 l 5
 0 1400 l 5
96 1475 m 29
 202 -1 l 29
 461 1049 l 29
 720 -1 l 29
 825.998 1475.33 l 29
EndSplineSet
EndChar

StartChar: X
Encoding: 88 88 55
Width: 922
VWidth: 1947
GlyphClass: 2
Flags: MW
LayerCount: 2
Fore
SplineSet
0 1400 m 5
 922 1400 l 5
 922 0 l 5
 0 0 l 5
 0 1400 l 5
780 1480 m 29
 142 -80 l 29
142 1480 m 29
 780 -80 l 29
EndSplineSet
EndChar

StartChar: Y
Encoding: 89 89 56
Width: 922
VWidth: 1947
GlyphClass: 2
Flags: MW
LayerCount: 2
Fore
SplineSet
0 1400 m 1
 922 1400 l 1
 922 -25 l 1
 0 -25 l 1
 0 1400 l 1
780 1480 m 17
 461.007 512.996 l 1
 461 -50 l 9
142 1480 m 25
 461.004 512.996 l 25
EndSplineSet
EndChar

StartChar: Z
Encoding: 90 90 57
Width: 922
VWidth: 1947
GlyphClass: 2
Flags: MW
LayerCount: 2
Fore
SplineSet
90 1425 m 1
 832 1425 l 1
 832 -25 l 1
 90 -25 l 1
 90 1425 l 1
90 1308 m 25
 740 1308 l 25
 182 93 l 25
 832 93 l 25
EndSplineSet
EndChar

StartChar: bracketleft
Encoding: 91 91 58
Width: 922
VWidth: 1947
GlyphClass: 2
Flags: MW
LayerCount: 2
Fore
SplineSet
740 1480 m 21
 350 1480 l 5
 350 -80 l 29
 740 -80 l 13
EndSplineSet
EndChar

StartChar: backslash
Encoding: 92 92 59
Width: 922
VWidth: 1708
GlyphClass: 2
Flags: MW
LayerCount: 2
Fore
SplineSet
740 -25 m 25
 182 1425 l 25
EndSplineSet
EndChar

StartChar: bracketright
Encoding: 93 93 60
Width: 922
VWidth: 1947
GlyphClass: 2
Flags: MW
LayerCount: 2
Fore
SplineSet
182 1480 m 17
 572 1480 l 1
 572 -80 l 25
 182 -80 l 9
EndSplineSet
EndChar

StartChar: asciicircum
Encoding: 94 94 61
Width: 922
VWidth: 1947
GlyphClass: 2
Flags: MW
LayerCount: 2
Fore
SplineSet
0 1425 m 1
 922 1425 l 1
 922 0 l 1
 0 0 l 1
 0 1425 l 1
182 957 m 25
 461 1353 l 25
 740 957 l 25
EndSplineSet
EndChar

StartChar: underscore
Encoding: 95 95 62
Width: 922
VWidth: 1947
GlyphClass: 2
Flags: MW
LayerCount: 2
Fore
SplineSet
90 -92 m 25
 832 -92 l 25
EndSplineSet
EndChar

StartChar: grave
Encoding: 96 96 63
Width: 922
VWidth: 1708
GlyphClass: 2
Flags: W
HStem: 1406 20G<360.5 392>
LayerCount: 2
Fore
SplineSet
636 1177 m 6
 645 1165 650 1147 650 1129 c 7
 650 1107 644 1085 629 1070 c 4
 614 1055 592 1049 571 1049 c 7
 552 1049 534 1054 522 1063 c 6
 311 1235 l 6
 288 1254 272 1287 272 1323 c 7
 272 1350 280 1377 300 1397 c 4
 320 1417 347 1426 374 1426 c 7
 410 1426 444 1409 463 1386 c 6
 636 1177 l 6
EndSplineSet
EndChar

StartChar: a
Encoding: 97 97 64
Width: 922
VWidth: 1947
GlyphClass: 2
Flags: MW
LayerCount: 2
Fore
SplineSet
740 561 m 29
 452 561 l 22
 272 561 182 425 182 337 c 14
 182 291 l 22
 182 201 272 67 452 67 c 14
 470 67 l 22
 605 67 740 246 740 337 c 13
205.345 822 m 5
 242.71 911.648 324.928 957 452 957 c 14
 470 957 l 22
 650 957 740 866 740 687 c 14
 740 0 l 29
EndSplineSet
EndChar

StartChar: b
Encoding: 98 98 65
Width: 922
VWidth: 2334
GlyphClass: 2
Flags: MW
LayerCount: 2
Fore
SplineSet
182 1400 m 25
 182 0 l 25
182 597 m 10
 182 427 l 18
 182 201 302 67 452 67 c 10
 470 67 l 18
 650 67 740 201 740 427 c 10
 740 597 l 18
 740 821 650 957 470 957 c 10
 452 957 l 18
 272 957 182 821 182 597 c 10
EndSplineSet
EndChar

StartChar: c
Encoding: 99 99 66
Width: 922
VWidth: 2334
GlyphClass: 2
Flags: MW
LayerCount: 2
Fore
SplineSet
725 798 m 5
 693 904 608 956 470 956 c 14
 452 956 l 22
 272 956 182 821 182 597 c 14
 182 427 l 22
 182 201 302 67 452 67 c 14
 470 67 l 22
 606 67 690 118 724 220 c 5
EndSplineSet
EndChar

StartChar: d
Encoding: 100 100 67
Width: 922
VWidth: 1947
GlyphClass: 2
Flags: MW
LayerCount: 2
Fore
SplineSet
740 1400 m 25
 740 0 l 25
182 597 m 10
 182 427 l 18
 182 201 302 67 452 67 c 10
 470 67 l 18
 650 67 740 201 740 427 c 10
 740 597 l 18
 740 821 650 957 470 957 c 10
 452 957 l 18
 272 957 182 821 182 597 c 10
EndSplineSet
EndChar

StartChar: e
Encoding: 101 101 68
Width: 922
VWidth: 1947
GlyphClass: 2
Flags: MW
LayerCount: 2
Fore
SplineSet
182 561 m 25
 740 561 l 25
 740 687 l 18
 740 866 650 957 470 957 c 10
 452 957 l 18
 272 957 182 866 182 687 c 10
 182 337 l 18
 182 156 272 67 452 67 c 10
 470 67 l 18
 611.73 67 697.662 122.178 727.795 234 c 1
EndSplineSet
EndChar

StartChar: f
Encoding: 102 102 69
Width: 922
VWidth: 1947
GlyphClass: 2
Flags: MW
LayerCount: 2
Fore
SplineSet
90 824 m 29
 740 824 l 29
740 1153 m 21
 740 1175.01 734.494 1197.15 724.844 1218 c 5
 695.479 1281.45 627.739 1333 560 1333 c 14
 542 1333 l 22
 452 1333 362 1242 362 1152 c 6
 362 0 l 13
EndSplineSet
EndChar

StartChar: g
Encoding: 103 103 70
Width: 922
VWidth: 1947
GlyphClass: 2
Flags: MW
LayerCount: 2
Fore
SplineSet
292.889 446 m 1
 231.023 414.55 182 346.686 182 281 c 1
 182 245 l 1
 182 179.33 227.828 114.181 288.292 83 c 1
684 879.397 m 1
 718.396 925.612 773.528 959 832 959 c 9
470 115 m 10
 452 115 l 18
 317 115 182 14 182 -87 c 10
 182 -107 l 18
 182 -220 317 -309 452 -309 c 10
 470 -309 l 18
 605 -309 740 -220 740 -107 c 10
 740 -87 l 18
 740 4 605 115 470 115 c 10
470 957 m 14
 452 957 l 22
 317 957 182 821 182 687 c 14
 182 661 l 22
 182 521 317 391 452 391 c 14
 470 391 l 22
 605 391 740 520 740 661 c 14
 740 687 l 22
 740 821 605 957 470 957 c 14
EndSplineSet
EndChar

StartChar: h
Encoding: 104 104 71
Width: 922
VWidth: 2334
GlyphClass: 2
Flags: MW
LayerCount: 2
Fore
SplineSet
740 0 m 25
 740 687 l 18
 740 866 650 957 470 957 c 10
 452 957 l 18
 294 957 182 731 182 597 c 10
 182 513 l 25
182 1400 m 25
 182 0 l 25
EndSplineSet
EndChar

StartChar: k
Encoding: 107 107 74
Width: 922
VWidth: 1947
GlyphClass: 2
Flags: MW
LayerCount: 2
Fore
SplineSet
0 1425 m 1
 922 1425 l 1
 922 0 l 1
 0 0 l 1
 0 1425 l 1
832 -156 m 25
 381 621 l 25
740 1063 m 25
 183 384 l 25
182 1425 m 25
 182 0 l 25
EndSplineSet
EndChar

StartChar: l
Encoding: 108 108 75
Width: 922
VWidth: 1947
GlyphClass: 2
Flags: MW
LayerCount: 2
Fore
SplineSet
182 92 m 25
 740 92 l 25
461 92 m 17
182 1308 m 25
 461 1308 l 25
 461 92 l 25
EndSplineSet
EndChar

StartChar: m
Encoding: 109 109 76
Width: 922
VWidth: 2334
GlyphClass: 2
Flags: MW
LayerCount: 2
Fore
SplineSet
780 0 m 25
 780 777 l 18
 780 908 727 957 645 957 c 10
 635 957 l 18
 537 957 461 821 461 687 c 10
 461 603 l 25
461 0 m 25
 461 777 l 18
 461 908 408 957 326 957 c 10
 316 957 l 18
 218 957 142 821 142 687 c 10
 142 603 l 25
142 1024 m 25
 142 0 l 25
EndSplineSet
EndChar

StartChar: n
Encoding: 110 110 77
Width: 922
VWidth: 2334
GlyphClass: 2
Flags: W
LayerCount: 2
Fore
SplineSet
740 0 m 29
 740 687 l 22
 740 866 650 957 470 957 c 14
 452 957 l 22
 294 957 182 731 182 597 c 14
 182 513 l 29
182 1024 m 29
 182 0 l 29
EndSplineSet
EndChar

StartChar: o
Encoding: 111 111 78
Width: 922
VWidth: 1947
GlyphClass: 2
Flags: MW
LayerCount: 2
Fore
SplineSet
461 956 m 7
 671.06 956 750 780 750 513 c 7
 750 244 671.117 67 461 67 c 7
 250.998 67 172 243.998 172 513 c 7
 172 780.002 250.99 956 461 956 c 7
EndSplineSet
EndChar

StartChar: p
Encoding: 112 112 79
Width: 922
VWidth: 1947
GlyphClass: 2
Flags: MW
LayerCount: 2
Fore
SplineSet
182 597 m 14
 182 427 l 22
 182 201 302 67 452 67 c 14
 470 67 l 22
 650 67 740 201 740 427 c 14
 740 597 l 22
 740 821 650 957 470 957 c 14
 452 957 l 22
 272 957 182 821 182 597 c 14
182 1024 m 29
 182 -385 l 29
EndSplineSet
EndChar

StartChar: q
Encoding: 113 113 80
Width: 922
VWidth: 1947
GlyphClass: 2
Flags: MW
LayerCount: 2
Fore
SplineSet
740 1024 m 25
 740 -385 l 25
182 597 m 10
 182 427 l 18
 182 201 302 67 452 67 c 10
 470 67 l 18
 650 67 740 201 740 427 c 10
 740 597 l 18
 740 821 650 957 470 957 c 10
 452 957 l 18
 272 957 182 821 182 597 c 10
EndSplineSet
EndChar

StartChar: r
Encoding: 114 114 81
Width: 922
VWidth: 1947
GlyphClass: 2
Flags: MW
LayerCount: 2
Fore
SplineSet
790 597 m 16
 790 676.537 780.147 763.483 746.349 832 c 1
 710.37 904.943 647.253 957 540 957 c 10
 522 957 l 18
 342 957 182 694 182 470 c 10
 182 300 l 17
182 1024 m 25
 182 0 l 25
EndSplineSet
EndChar

StartChar: s
Encoding: 115 115 82
Width: 922
VWidth: 1947
GlyphClass: 2
Flags: MW
LayerCount: 2
Fore
SplineSet
740 687 m 21
 740 717.786 732.874 748.677 720.26 778 c 5
 677.969 876.312 573.985 957 470 957 c 14
 452 957 l 22
 317 957 182 920 182 757 c 6
 182 745 l 6
 182 691.311 215.139 648.068 272 624.735 c 6
 648 450.441 l 6
 707.569 422.828 740 367.928 740 300.938 c 6
 740 287 l 6
 740 151 605 67 470 67 c 14
 422 67 l 22
 285.934 67 152 202.727 152 337 c 12
EndSplineSet
EndChar

StartChar: t
Encoding: 116 116 83
Width: 922
VWidth: 1947
GlyphClass: 2
Flags: MW
LayerCount: 2
Fore
SplineSet
0 1425 m 5
 922 1425 l 5
 922 -84 l 5
 0 -84 l 5
 0 1425 l 5
90 916 m 29
 740 916 l 29
720 247 m 21
 720 224.99 714.494 202.85 704.844 182 c 5
 675.479 118.55 607.739 67 540 67 c 14
 522 67 l 22
 432 67 337.498 158.108 342 248 c 6
 405 1506 l 13
EndSplineSet
EndChar

StartChar: u
Encoding: 117 117 84
Width: 922
VWidth: 2334
GlyphClass: 2
Flags: MW
LayerCount: 2
Fore
SplineSet
182 1024 m 29
 182 337 l 22
 182 158 252 67 432 67 c 14
 450 67 l 22
 608 67 740 313 740 447 c 14
 740 531 l 29
740 0 m 29
 740 1024 l 29
EndSplineSet
EndChar

StartChar: v
Encoding: 118 118 85
Width: 922
VWidth: 1947
GlyphClass: 2
Flags: MW
LayerCount: 2
Fore
SplineSet
0 1024 m 1
 922 1024 l 1
 922 -25 l 1
 0 -25 l 1
 0 1024 l 1
90 1310 m 25
 461 67 l 25
 832 1308 l 25
EndSplineSet
EndChar

StartChar: w
Encoding: 119 119 86
Width: 922
VWidth: 1947
GlyphClass: 2
Flags: MW
LayerCount: 2
Fore
SplineSet
0 1024 m 1
 317 1024 l 1
 317 932 l 1
 610 932 l 1
 610.5 1024 l 1
 922 1024 l 1
 922 0 l 1
 0 0 l 1
 0 1024 l 1
96 1099 m 25
 202 92 l 25
 461 823 l 25
 720 92 l 25
 825.998 1099.33 l 25
EndSplineSet
EndChar

StartChar: x
Encoding: 120 120 87
Width: 922
VWidth: 1947
GlyphClass: 2
Flags: MW
LayerCount: 2
Fore
SplineSet
0 1024 m 1
 922 1024 l 1
 922 0 l 1
 0 0 l 1
 0 1024 l 1
780 1098 m 25
 142 -74 l 25
142 1098 m 25
 780 -75 l 25
EndSplineSet
EndChar

StartChar: y
Encoding: 121 121 88
Width: 922
VWidth: 1947
GlyphClass: 2
Flags: MW
LayerCount: 2
Fore
SplineSet
0 -410 m 1
 0 1024 l 1
 922 1024 l 1
 922 -410 l 1
 0 -410 l 1
832 1308 m 1
 508 -110 l 2
 483.389 -203.312 422 -294 324 -294 c 1
 251.774 -294 179.549 -239.764 151.838 -170 c 1
 144.25 -150.899 140 -130.635 140 -110 c 9
560 126 m 9
 90 1238 l 25
EndSplineSet
EndChar

StartChar: z
Encoding: 122 122 89
Width: 922
VWidth: 1947
GlyphClass: 2
Flags: MW
LayerCount: 2
Fore
SplineSet
87 1049 m 1
 837 1049 l 1
 837 -25 l 1
 87 -25 l 1
 87 1049 l 1
140 932 m 25
 740 932 l 25
 182 92 l 25
 852 92 l 25
EndSplineSet
EndChar

StartChar: braceleft
Encoding: 123 123 90
Width: 922
VWidth: 1947
GlyphClass: 2
Flags: MW
LayerCount: 2
Fore
SplineSet
740 1480 m 17
 620 1480 l 2
 470 1480 350 1360 350 1210 c 2
 350 970 l 2
 350 830 272 700 120 700 c 2
 90 700 l 1
 120 700 l 2
 272 700 350 570 350 430 c 2
 350 190 l 2
 350 40 470 -80 620 -80 c 10
 740 -80 l 9
EndSplineSet
EndChar

StartChar: bar
Encoding: 124 124 91
Width: 922
VWidth: 1947
GlyphClass: 2
Flags: MW
LayerCount: 2
Fore
SplineSet
461 -77 m 29
 461 1477 l 29
EndSplineSet
EndChar

StartChar: braceright
Encoding: 125 125 92
Width: 922
VWidth: 1947
GlyphClass: 2
Flags: MW
LayerCount: 2
Fore
SplineSet
90 1480 m 17
 210 1480 l 2
 360 1480 480 1360 480 1210 c 2
 480 970 l 2
 480 830 558 700 710 700 c 2
 740 700 l 1
 710 700 l 2
 558 700 480 570 480 430 c 2
 480 190 l 2
 480 40 360 -80 210 -80 c 10
 90 -80 l 9
EndSplineSet
EndChar

StartChar: asciitilde
Encoding: 126 126 93
Width: 922
VWidth: 1947
GlyphClass: 2
Flags: MW
LayerCount: 2
Fore
SplineSet
139 800 m 21
 170 908 244 977 317 977 c 14
 332 977 l 22
 361.255 977 390.521 959.637 417 933.3 c 6
 510 840.8 l 6
 534.729 816.204 562.589 801 590 801 c 14
 605 801 l 22
 686 801 754 886 784 977 c 13
EndSplineSet
EndChar

StartChar: cent
Encoding: 162 162 96
Width: 922
VWidth: 2334
GlyphClass: 2
Flags: MW
LayerCount: 2
Fore
SplineSet
372 -110 m 25
 609 1197 l 25
725 798 m 1
 693 904 608 956 470 956 c 10
 452 956 l 18
 272 956 182 821 182 597 c 10
 182 427 l 18
 182 201 302 67 452 67 c 10
 470 67 l 18
 606 67 690 118 724 220 c 1
EndSplineSet
EndChar

StartChar: sterling
Encoding: 163 163 97
Width: 922
VWidth: 1947
GlyphClass: 2
Flags: MW
LayerCount: 2
Fore
SplineSet
70 699 m 21
 720 699 l 13
740 1063 m 17
 737.273 1112.98 721.172 1159.82 695.879 1200 c 1
 645.803 1279.55 559.695 1333 470 1333 c 10
 452 1333 l 18
 317 1333 182 1197 182 1063 c 10
 182 1024 l 18
 182 972.585 199.594 918.194 226.776 864 c 2
 320.072 678 l 2
 346.715 624.885 362 569.447 362 516 c 10
 362 470 l 18
 362 304.64 225.344 142.327 122.002 75.3379 c 2
 89.8037 54.4658 l 1
 122.001 75.3379 l 2
 224.671 141.895 276.076 156 362 156 c 10
 391 156 l 18
 425.256 156 453.474 146.425 477 130.978 c 2
 549 83.7044 l 2
 566.458 73.8293 584.501 67 605 67 c 10
 650 67 l 18
 714 67 789 108 822 147 c 9
EndSplineSet
EndChar

StartChar: euro
Encoding: 8364 8364 98
Width: 922
VWidth: 1947
GlyphClass: 2
Flags: MW
LayerCount: 2
Fore
SplineSet
613 565 m 25
 60 565 l 25
743 875 m 25
 90 875 l 25
775 203.525 m 1
 731.201 119.01 644.244 67 544 67 c 3
 296 67 255 384 255 700 c 3
 255 1024 299 1333 544 1333 c 3
 644.451 1333 732 1282 775 1200 c 1
EndSplineSet
EndChar

StartChar: yen
Encoding: 165 165 99
Width: 922
VWidth: 1947
GlyphClass: 2
Flags: MW
LayerCount: 2
Fore
SplineSet
90 155 m 17
 832 155 l 9
90 512 m 17
 832 512 l 9
0 1400 m 1
 922 1400 l 1
 922 -160 l 1
 0 -160 l 1
 0 1400 l 1
780 1480 m 17
 461.007 512.996 l 1
 461 -185 l 9
142 1480 m 25
 461.004 512.996 l 25
EndSplineSet
EndChar

StartChar: section
Encoding: 167 167 101
Width: 922
VWidth: 1947
GlyphClass: 2
Flags: MW
LayerCount: 2
Fore
SplineSet
255.238 66 m 1
 292.881 -24.0107 386.641 -94 481 -94 c 10
 497 -94 l 18
 619 -94 740 22 740 149 c 10
 740 172 l 18
 740 293 591 415 469 415 c 10
 453 415 l 18
663.657 1335 m 1
 624.158 1420.83 532.862 1490 441 1490 c 10
 425 1490 l 18
 303 1490 182 1368 182 1247 c 10
 182 1224 l 18
 182 1098 331 981 453 981 c 10
 469 981 l 18
470 981 m 10
 452 981 l 18
 317 981 182 845 182 711 c 10
 182 685 l 18
 182 545 317 415 452 415 c 10
 470 415 l 18
 605 415 740 544 740 685 c 10
 740 711 l 18
 740 845 605 981 470 981 c 10
EndSplineSet
EndChar

StartChar: copyright
Encoding: 169 169 103
Width: 922
VWidth: 1947
GlyphClass: 2
Flags: MW
LayerCount: 2
Fore
SplineSet
461 1004.38 m 3
 723.24 1004.38 857 821.34 857 608.38 c 3
 857 402.46 723.24 210.62 461 210.62 c 3
 202.28 210.62 65 395.42 65 608.38 c 3
 65 824.86 205.8 1004.38 461 1004.38 c 3
607.447 468 m 1
 574.352 432.222 525.432 409.06 461 409.06 c 3
 331.64 409.06 263 501.46 263 607.94 c 3
 263 716.18 333.4 805.94 461 805.94 c 3
 524.65 805.94 573.161 784.374 606.234 750 c 1
EndSplineSet
EndChar

StartChar: ordfeminine
Encoding: 170 170 104
Width: 922
VWidth: 1947
GlyphClass: 2
Flags: MW
LayerCount: 2
Fore
SplineSet
90 319 m 17
 832 319 l 9
698.15 1012.62 m 25
 453.35 1012.62 l 18
 300.35 1012.62 223.85 897.025 223.85 822.225 c 10
 223.85 783.125 l 18
 223.85 706.625 300.35 592.725 453.35 592.725 c 10
 468.65 592.725 l 18
 583.4 592.725 698.15 744.875 698.15 822.225 c 9
243.693 1234.47 m 1
 275.453 1310.68 345.339 1349.22 453.35 1349.22 c 10
 468.65 1349.22 l 18
 621.65 1349.22 698.15 1271.88 698.15 1119.72 c 10
 698.15 535.775 l 25
EndSplineSet
EndChar

StartChar: guillemotleft
Encoding: 171 171 105
Width: 922
VWidth: 1947
GlyphClass: 2
Flags: MW
LayerCount: 2
Fore
SplineSet
772 156 m 25
 592 425 l 25
 592 512 l 25
 772 782 l 25
352 156 m 25
 172 425 l 25
 172 512 l 25
 352 782 l 25
EndSplineSet
EndChar

StartChar: logicalnot
Encoding: 172 172 106
Width: 922
VWidth: 1708
GlyphClass: 2
Flags: MW
LayerCount: 2
Fore
SplineSet
50 600 m 29
 740 600 l 29
 740 246 l 29
EndSplineSet
EndChar

StartChar: softhyphen
Encoding: 173 173 107
Width: 922
VWidth: 1947
GlyphClass: 2
Flags: MW
LayerCount: 2
Fore
SplineSet
222 600 m 25
 700 600 l 25
EndSplineSet
EndChar

StartChar: registered
Encoding: 174 174 108
Width: 922
VWidth: 1947
GlyphClass: 2
Flags: MW
LayerCount: 2
Fore
SplineSet
630.5 388.18 m 25
 471.605 612.58 l 25
333.5 614.23 m 25
 476.061 614.23 l 2
 565.16 614.23 609.709 643.93 609.709 703.66 c 2
 609.709 738.97 l 2
 609.709 798.04 569.615 819.82 476.061 819.82 c 2
 333.5 819.82 l 1
 333.5 388.18 l 1
461 1004.38 m 3
 723.24 1004.38 857 821.34 857 608.38 c 3
 857 402.46 723.24 210.62 461 210.62 c 3
 202.28 210.62 65 395.42 65 608.38 c 3
 65 824.86 205.8 1004.38 461 1004.38 c 3
EndSplineSet
EndChar

StartChar: degree
Encoding: 176 176 110
Width: 922
VWidth: 1947
GlyphClass: 2
Flags: MW
LayerCount: 2
Fore
SplineSet
461 1333 m 3
 610 1333 686 1229 686 1108 c 3
 686 991 610 882 461 882 c 3
 314 882 236 987 236 1108 c 3
 236 1231 316 1333 461 1333 c 3
EndSplineSet
EndChar

StartChar: plusminus
Encoding: 177 177 111
Width: 922
VWidth: 1947
GlyphClass: 2
Flags: MW
LayerCount: 2
Fore
SplineSet
50 140 m 25
 872 140 l 25
461 419 m 25
 461 1241 l 25
50 830 m 25
 872 830 l 25
EndSplineSet
EndChar

StartChar: twosuperior
Encoding: 178 178 112
Width: 922
VWidth: 2334
GlyphClass: 2
Flags: MW
LayerCount: 2
Fore
SplineSet
334 1232 m 5
 360 1292 392 1333 477 1333 c 14
 487 1333 l 22
 586 1333 635 1283 635 1185 c 14
 635 1163 l 22
 635 1131 616 1093 585 1052 c 6
 403 811 l 6
 367 764 344 707 328 650 c 5
 686 650 l 13
230 -25 m 5
 230 1479 l 5
 922 1479 l 5
 922 -25 l 5
 230 -25 l 5
EndSplineSet
EndChar

StartChar: threesuperior
Encoding: 179 179 113
Width: 922
VWidth: 2334
GlyphClass: 2
Flags: MW
LayerCount: 2
Fore
SplineSet
288.74 1231.9 m 5
 315.141 1290.2 385.1 1328.15 455.06 1328.15 c 14
 466.94 1328.15 l 22
 556.04 1328.15 615.44 1264.9 615.44 1179.65 c 14
 615.44 1157.1 l 22
 615.44 1096.6 556.04 1022.35 467.6 1022.35 c 5
 356.06 1022.35 l 13
 466.94 1022.35 l 22
 585.74 1022.35 645.141 947.55 645.141 824.35 c 14
 645.141 813.35 l 22
 645.141 692.35 585.74 631.85 466.94 631.85 c 14
 455.06 631.85 l 22
 374.54 631.85 276.859 680.8 276.859 780.35 c 5
EndSplineSet
EndChar

StartChar: micro
Encoding: 181 181 115
Width: 922
VWidth: 2334
GlyphClass: 2
Flags: MW
LayerCount: 2
Fore
SplineSet
141 -348 m 17
 177 -237 182 -174 182 -25 c 10
 182 516 l 25
182 1024 m 25
 182 397 l 18
 182 218 272 67 452 67 c 10
 470 67 l 18
 628 67 740 263 740 397 c 10
 740 531 l 25
770 -40 m 17
 752.649 13.7061 740 53 740 116 c 2
 740 1024 l 9
EndSplineSet
EndChar

StartChar: paragraph
Encoding: 182 182 116
Width: 922
VWidth: 1947
GlyphClass: 2
Flags: MW
LayerCount: 2
Fore
SplineSet
274 890 m 25
 274 1240 l 25
740 0 m 25
 740 1400 l 25
 380 1400 l 25
380 727 m 25
 362 727 l 2
 272 727 152 795 152 1057 c 2
 152 1095 l 2
 152 1281 267 1400 362 1400 c 2
 380 1400 l 1
 380 0 l 1
EndSplineSet
EndChar

StartChar: periodcentered
Encoding: 183 183 117
Width: 922
VWidth: 1947
GlyphClass: 2
Flags: MW
LayerCount: 2
Fore
SplineSet
590 747 m 0
 590 678 537 617 460 617 c 0
 386 617 331 677 331 747 c 0
 331 815 382 877 460 877 c 0
 536 877 590 817 590 747 c 0
EndSplineSet
EndChar

StartChar: onesuperior
Encoding: 185 185 119
Width: 922
VWidth: 1708
GlyphClass: 2
Flags: MW
LayerCount: 2
Fore
SplineSet
157 825 m 5
 365 1045 l 5
 365 1148 l 5
 313 1204 l 5
 505 1425 l 5
 765 1425 l 5
 765 627 l 5
 157 627 l 5
 157 825 l 5
526 641 m 29
 526 1374 l 29
 254 1172 l 29
EndSplineSet
EndChar

StartChar: ordmasculine
Encoding: 186 186 120
Width: 922
VWidth: 1947
GlyphClass: 2
Flags: MW
LayerCount: 2
Fore
SplineSet
90 319 m 17
 832 319 l 9
461 1353 m 7
 640 1353 707 1204 707 977 c 7
 707 748 640 598 461 598 c 7
 282 598 215 748 215 977 c 7
 215 1204 282 1353 461 1353 c 7
EndSplineSet
EndChar

StartChar: guillemotright
Encoding: 187 187 121
Width: 922
VWidth: 1947
GlyphClass: 2
Flags: MW
LayerCount: 2
Fore
SplineSet
150 156 m 25
 330 425 l 25
 330 512 l 25
 150 782 l 25
570 156 m 25
 750 425 l 25
 750 512 l 25
 570 782 l 25
EndSplineSet
EndChar

StartChar: OE
Encoding: 338 338 122
Width: 922
VWidth: 1947
GlyphClass: 2
Flags: MW
LayerCount: 2
Fore
SplineSet
821 92 m 17
 521 92 l 1
 521 276 l 1
 521 1124 l 2
 521 1308 l 1
 821 1308 l 1
770 732 m 1
 521 732 l 1
101 1124 m 2
 101 1216.47 182 1308 285 1308 c 2
 341 1308 l 2
 433 1308 521 1222 521 1124 c 2
 521 276 l 2
 521 182 433 92 341 92 c 2
 285 92 l 2
 182 92 101 184.214 101 276 c 10
 101 1124 l 2
EndSplineSet
EndChar

StartChar: oe
Encoding: 339 339 123
Width: 922
VWidth: 1947
GlyphClass: 2
Flags: MW
LayerCount: 2
Fore
SplineSet
821 251 m 3
 821 147 738 67 641 67 c 3
 549 67 461 153 461 251 c 2
 461 773 l 2
 461 867 549 957 641 957 c 3
 740 957 821 878 821 773 c 10
 821 542 l 1
 461 542 l 1
101 773 m 2
 101 876 184 957 281 957 c 3
 373 957 461 871 461 773 c 2
 461 251 l 2
 461 157 373 67 281 67 c 3
 182 67 101 146.003 101 251 c 10
 101 773 l 2
EndSplineSet
EndChar

StartChar: AE
Encoding: 198 198 132
Width: 922
VWidth: 1947
GlyphClass: 2
Flags: MW
LayerCount: 2
Fore
SplineSet
0 0 m 1
 0 1425 l 1
 922 1425 l 1
 922 0 l 1
 0 0 l 1
78 -90 m 17
 264.621 1136 l 2
 278.718 1230.5 354 1308 462 1308 c 10
 521 1308 l 25
821 92 m 17
 521 92 l 1
 521 1308 l 1
 821 1308 l 1
770 732 m 1
 201 732 l 1
EndSplineSet
EndChar

StartChar: Eth
Encoding: 208 208 142
Width: 922
VWidth: 1947
GlyphClass: 2
Flags: MW
LayerCount: 2
Fore
SplineSet
42 756 m 25
 452 756 l 25
461 1308 m 2
 708 1308 750 1024.35 750 700 c 3
 750 369 702.207 92 461 92 c 2
 222 92 l 1
 222 1308 l 1
 461 1308 l 2
EndSplineSet
EndChar

StartChar: multiply
Encoding: 215 215 149
Width: 922
VWidth: 1708
GlyphClass: 2
Flags: MW
LayerCount: 2
Fore
SplineSet
752 309 m 25
 170 891 l 25
170 309 m 25
 752 891 l 25
EndSplineSet
EndChar

StartChar: Thorn
Encoding: 222 222 156
Width: 922
VWidth: 1947
GlyphClass: 2
Flags: MW
LayerCount: 2
Fore
SplineSet
182 445 m 25
 470 445 l 2
 650 445 740 534 740 715 c 2
 740 953 l 2
 740 1132 659 1198 470 1198 c 2
 182 1198 l 1
182 1540 m 1
 182 0 l 1
EndSplineSet
EndChar

StartChar: germandbls
Encoding: 223 223 157
Width: 922
VWidth: 1947
GlyphClass: 2
Flags: MW
LayerCount: 2
Fore
SplineSet
182 -388 m 1
 182 1064 l 2
 182 1242 272 1333 452 1333 c 2
 470 1333 l 2
 610 1333 690 1242 690 1063 c 2
 690 1025 l 2
 690 844 600 755 420 755 c 2
 402 755 l 25
 470 755 l 18
 650 755 740 664 740 485 c 10
 740 337 l 18
 740 156 650 67 515 67 c 2
 507 67 l 2
 452 67 412 78 373.274 114 c 1
EndSplineSet
EndChar

StartChar: ae
Encoding: 230 230 164
Width: 922
VWidth: 1947
GlyphClass: 2
Flags: MW
LayerCount: 2
Fore
SplineSet
821 251 m 7
 821 146.995 737.658 67 641 67 c 7
 549 67 461 153 461 251 c 6
 461 773 l 6
 461 867.333 549 957 641 957 c 7
 740.081 957 821 877.667 821 773 c 14
 821 542 l 5
 285 542 l 6
 182 542 101 461.333 101 358 c 6
 101 251 l 22
 101 146.333 181.919 67 281 67 c 7
 373 67 461 156.667 461 251 c 6
 461 773 l 6
 461 871 373 957 281 957 c 7
 184.22 957 101 876.309 101 773 c 7
EndSplineSet
EndChar

StartChar: eth
Encoding: 240 240 174
Width: 922
VWidth: 1947
GlyphClass: 2
Flags: W
VStem: 182 558<220.939 427 497 723.211>
LayerCount: 2
Fore
SplineSet
183 1099 m 25
 768 1322 l 25
740 430 m 25
 740 620 l 18
 740 909 489 1252 272 1432 c 9
182 457 m 10
 182 427 l 18
 182 201 302 67 452 67 c 10
 470 67 l 18
 650 67 740 201 740 427 c 10
 740 457 l 18
 740 681 650 817 470 817 c 10
 452 817 l 18
 272 817 182 681 182 457 c 10
EndSplineSet
EndChar

StartChar: divide
Encoding: 247 247 181
Width: 922
VWidth: 1947
GlyphClass: 2
Flags: MW
LayerCount: 2
Fore
SplineSet
50 600 m 25
 872 600 l 25
615 960 m 0
 615 890 555 813 471 813 c 0
 379 813 323 897 323 960 c 0
 323 1023 379 1107 471 1107 c 0
 555 1107 615 1030 615 960 c 0
615 243 m 0
 615 170 556 96 471 96 c 0
 387 96 323 173 323 243 c 0
 323 308 384 387 471 387 c 0
 558 387 615 308 615 243 c 0
EndSplineSet
EndChar

StartChar: oslash
Encoding: 248 248 182
Width: 922
VWidth: 1947
GlyphClass: 2
Flags: MW
LayerCount: 2
Fore
SplineSet
144 -48 m 25
 783 1062 l 25
461 956 m 3
 671.06 956 750 780 750 513 c 3
 750 244 671.117 67 461 67 c 3
 250.998 67 172 243.998 172 513 c 3
 172 780.002 250.99 956 461 956 c 3
EndSplineSet
EndChar

StartChar: thorn
Encoding: 254 254 188
Width: 922
VWidth: 1947
GlyphClass: 2
Flags: MW
LayerCount: 2
Fore
SplineSet
182 -387 m 29
 182 1400 l 29
461 956 m 7
 671.06 956 750 780 750 513 c 7
 750 244 671.117 67 461 67 c 7
 289.754 67 182 183 182 374 c 6
 182 653 l 6
 182 841 290.297 956 461 956 c 7
EndSplineSet
EndChar

StartChar: minus
Encoding: 8722 8722 190
Width: 922
VWidth: 1708
GlyphClass: 2
Flags: MW
LayerCount: 2
Fore
SplineSet
50 600 m 29
 872 600 l 25
EndSplineSet
EndChar

StartChar: quoteleft
Encoding: 8216 8216 192
Width: 922
VWidth: 1947
GlyphClass: 2
Flags: W
HStem: 1353 74<553.724 603.875>
VStem: 324 259<966.306 1083.15>
LayerCount: 2
Fore
SplineSet
324 1064 m 21
 324 1195 338 1399 600 1427 c 13
 620 1353 l 21
 551 1328 436 1251 539 1162 c 13
 324 1064 l 21
324 1064 m 4
 324 1133 377 1194 454 1194 c 4
 528 1194 583 1134 583 1064 c 4
 583 996 532 934 454 934 c 4
 378 934 324 994 324 1064 c 4
EndSplineSet
EndChar

StartChar: gravemodifier
Encoding: 715 715 193
Width: 922
VWidth: 2334
GlyphClass: 2
Flags: MW
LayerCount: 2
Fore
SplineSet
392 1647 m 25
 590 1438 l 25
EndSplineSet
EndChar

StartChar: acute
Encoding: 180 180 194
Width: 922
VWidth: 1947
GlyphClass: 2
Flags: MW
LayerCount: 2
Fore
SplineSet
561 1587 m 25
 362 1308 l 25
EndSplineSet
EndChar

StartChar: circumflex
Encoding: 710 710 195
Width: 922
VWidth: 1947
GlyphClass: 2
Flags: MW
LayerCount: 2
Fore
SplineSet
261 1460 m 25
 461 1600 l 25
 661 1460 l 25
0 700 m 1
 0 1638 l 1
 922 1638 l 1
 922 700 l 1
 0 700 l 1
EndSplineSet
EndChar

StartChar: tilde
Encoding: 732 732 196
Width: 922
VWidth: 1947
GlyphClass: 2
Flags: MW
LayerCount: 2
Fore
SplineSet
182 1502 m 21
 202 1527.55 l 6
 236.359 1571.44 274.987 1612 344 1612 c 14
 360 1612 l 22
 395.216 1612 428.901 1594.99 451 1575.76 c 6
 470 1558.89 l 6
 492.258 1539.39 525.831 1522 561 1522 c 14
 578 1522 l 22
 648 1522 687.659 1562 723 1609.27 c 6
 740 1632 l 13
EndSplineSet
EndChar

StartChar: macronmodifier
Encoding: 713 713 197
Width: 922
VWidth: 1947
GlyphClass: 2
Flags: MW
LayerCount: 2
Fore
SplineSet
687 1538 m 1
 234 1538 l 1
EndSplineSet
EndChar

StartChar: breve
Encoding: 728 728 198
Width: 922
VWidth: 1947
GlyphClass: 2
Flags: MW
LayerCount: 2
Fore
SplineSet
692.667 1592.64 m 0
 633.274 1523.12 550.028 1480 458.5 1480 c 3
 367.254 1480 286.068 1522.85 228.501 1592 c 0
EndSplineSet
EndChar

StartChar: dotaccent
Encoding: 729 729 199
Width: 922
VWidth: 1947
GlyphClass: 2
Flags: W
HStem: 1407.4 239.199<364.103 548.84>
VStem: 337.4 239.199<1434.63 1619.37>
LayerCount: 2
Fore
SplineSet
337 1527 m 27
 337 1593 389 1647 456 1647 c 27
 522 1647 577 1593 577 1527 c 27
 577 1461 522 1407 456 1407 c 27
 389 1407 337 1461 337 1527 c 27
EndSplineSet
EndChar

StartChar: dieresis
Encoding: 168 168 200
Width: 922
VWidth: 1947
GlyphClass: 2
Flags: MW
LayerCount: 2
Fore
SplineSet
386 1545 m 0
 386 1482 335 1426 273 1426 c 0
 212 1426 159 1479 159 1545 c 0
 159 1615 215 1660 272 1660 c 0
 337 1660 386 1606 386 1545 c 0
762 1545 m 0
 762 1476 707 1426 650 1426 c 0
 590 1426 537 1480 537 1545 c 0
 537 1611 590 1660 650 1660 c 0
 705 1660 762 1615 762 1545 c 0
EndSplineSet
EndChar

StartChar: ring
Encoding: 730 730 202
Width: 922
VWidth: 1947
GlyphClass: 2
Flags: MW
LayerCount: 2
Fore
SplineSet
250.6 1425 m 27
 250.6 1537.2 338.6 1627.4 450.8 1627.4 c 27
 563 1627.4 655.4 1537.2 655.4 1425 c 27
 655.4 1312.8 563 1222.6 450.8 1222.6 c 27
 338.6 1222.6 250.6 1312.8 250.6 1425 c 27
361 1425 m 27
 361 1374 401 1333 452 1333 c 27
 503 1333 545 1374 545 1425 c 27
 545 1476 503 1517 452 1517 c 27
 401 1517 361 1476 361 1425 c 27
EndSplineSet
EndChar

StartChar: cedilla
Encoding: 184 184 203
Width: 922
VWidth: 1947
GlyphClass: 2
Flags: MW
LayerCount: 2
Fore
SplineSet
498 18 m 17
 498 0 l 1
 489 -132 l 1
 630 -132 687 -191.082 687 -270 c 3
 687 -354.476 592.027 -411 501 -411 c 27
 417.055 -411 352 -379 300 -334 c 9
EndSplineSet
EndChar

StartChar: ogonek
Encoding: 731 731 204
Width: 922
VWidth: 1947
GlyphClass: 2
Flags: MW
LayerCount: 2
Fore
SplineSet
606.889 -290.471 m 1
 579.998 -313.999 l 1
 557 -333 527.567 -344.8 495.6 -344.8 c 11
 424.946 -344.8 368.2 -286.653 368.2 -216 c 19
 368.2 -180.897 381.736 -149.178 403.982 -126 c 9
 530 0 l 25
 530 72 l 25
EndSplineSet
EndChar

StartChar: caron
Encoding: 711 711 205
Width: 922
VWidth: 1947
GlyphClass: 2
Flags: MW
LayerCount: 2
Fore
SplineSet
261 1600 m 29
 461 1460 l 29
 661 1600 l 29
0 1422 m 5
 0 1736 l 5
 922 1736 l 5
 922 1422 l 5
 0 1422 l 5
EndSplineSet
EndChar

StartChar: dotlessi
Encoding: 305 305 206
Width: 922
VWidth: 1947
GlyphClass: 2
Flags: W
LayerCount: 2
Fore
SplineSet
182 92 m 29
 740 92 l 29
461 92 m 21
182 932 m 29
 461 932 l 29
 461 92 l 29
EndSplineSet
EndChar

StartChar: currency
Encoding: 164 164 210
Width: 922
VWidth: 1947
GlyphClass: 2
Flags: MW
LayerCount: 2
Fore
SplineSet
810 433 m 17
 639 604 l 1
283 960 m 1
 112 1131 l 9
112 433 m 17
 284 605 l 1
639 960 m 1
 810 1131 l 9
469 1039 m 18
 591 1039 712 916 712 796 c 10
 712 772 l 18
 712 645 591 529 469 529 c 10
 453 529 l 18
 331 529 210 646 210 772 c 10
 210 796 l 18
 210 916 331 1039 453 1039 c 10
 469 1039 l 18
EndSplineSet
EndChar

StartChar: brokenbar
Encoding: 166 166 211
Width: 922
VWidth: 1947
GlyphClass: 2
Flags: MW
LayerCount: 2
Fore
SplineSet
461 -77 m 17
 461 600 l 1
461 800 m 1
 461 1477 l 9
EndSplineSet
EndChar

StartChar: onequarter
Encoding: 188 188 212
Width: 922
VWidth: 1708
GlyphClass: 2
Flags: MW
LayerCount: 2
Fore
SplineSet
476.95 574.375 m 1
 885.05 574.375 l 1
 885.05 -209.375 l 1
 476.95 -209.375 l 1
 476.95 574.375 l 1
777.05 -209.375 m 25
 777.05 524.875 l 25
 498.2 25.4746 l 25
 863.95 25.4746 l 25
-153 955 m 1
 55 1175 l 1
 55 1278 l 1
 3 1334 l 1
 195 1555 l 1
 455 1555 l 1
 455 757 l 1
 -153 757 l 1
 -153 955 l 1
216 771 m 25
 216 1504 l 25
 -56 1302 l 25
182 -25 m 25
 740 1425 l 25
EndSplineSet
EndChar

StartChar: onehalf
Encoding: 189 189 213
Width: 922
VWidth: 1708
GlyphClass: 2
Flags: MW
LayerCount: 2
Fore
SplineSet
531 372 m 1
 557 432 589 473 674 473 c 10
 684 473 l 18
 783 473 832 423 832 325 c 10
 832 303 l 18
 832 271 813 233 782 192 c 2
 600 -49 l 2
 564 -96 541 -153 525 -210 c 1
 883 -210 l 9
427 -345 m 1
 427 619 l 1
 1119 619 l 1
 1119 -345 l 1
 427 -345 l 1
-153 955 m 1
 55 1175 l 1
 55 1278 l 1
 3 1334 l 1
 195 1555 l 1
 455 1555 l 1
 455 757 l 1
 -153 757 l 1
 -153 955 l 1
216 771 m 25
 216 1504 l 25
 -56 1302 l 25
182 -25 m 25
 740 1425 l 25
EndSplineSet
EndChar

StartChar: threequarters
Encoding: 190 190 214
Width: 922
VWidth: 1708
GlyphClass: 2
Flags: MW
LayerCount: 2
Fore
SplineSet
85.9658 1431.9 m 1
 109.727 1490.2 172.689 1528.15 235.653 1528.15 c 10
 246.347 1528.15 l 18
 326.536 1528.15 379.996 1464.9 379.996 1379.65 c 10
 379.996 1357.1 l 18
 379.996 1296.6 326.536 1222.35 246.939 1222.35 c 1
 146.554 1222.35 l 9
 246.347 1222.35 l 18
 353.267 1222.35 406.727 1147.55 406.727 1024.35 c 10
 406.727 1013.35 l 18
 406.727 892.35 353.267 831.85 246.347 831.85 c 10
 235.653 831.85 l 18
 163.186 831.85 75.2734 880.8 75.2734 980.35 c 1
476.95 574.375 m 5
 885.05 574.375 l 5
 885.05 -209.375 l 5
 476.95 -209.375 l 5
 476.95 574.375 l 5
777.05 -209.375 m 29
 777.05 524.875 l 29
 498.2 25.4746 l 29
 863.95 25.4746 l 29
182 -25 m 25
 740 1425 l 25
EndSplineSet
EndChar

StartChar: Lslash
Encoding: 321 321 216
Width: 922
VWidth: 1947
GlyphClass: 2
Flags: MW
LayerCount: 2
Fore
SplineSet
40 512 m 25
 642 698 l 25
182 1400 m 25
 182 93 l 25
 832 93 l 25
EndSplineSet
EndChar

StartChar: lslash
Encoding: 322 322 257
Width: 922
VWidth: 1947
GlyphClass: 2
Flags: MW
LayerCount: 2
Fore
SplineSet
182 92 m 25
 740 92 l 25
461 92 m 17
182 1308 m 25
 461 1308 l 25
 461 92 l 25
160 512 m 25
 762 698 l 25
EndSplineSet
EndChar

StartChar: dotlessj
Encoding: 567 567 260
Width: 922
VWidth: 1947
GlyphClass: 2
Flags: MW
LayerCount: 2
Fore
SplineSet
660 -110 m 22
 657.045 -229.754 577.484 -294 476 -294 c 31
 374.516 -294 292 -207.673 292 -110 c 7
267 932 m 29
 660 932 l 29
 660 -110 l 14
EndSplineSet
EndChar

StartChar: eng
Encoding: 331 331 261
Width: 922
VWidth: 2334
GlyphClass: 2
Flags: MW
LayerCount: 2
Fore
SplineSet
330.333 -228 m 5
 364.967 -271.442 418.969 -294 475 -294 c 14
 526 -294 l 22
 660 -294 740 -170 740 -28 c 14
 740 687 l 22
 740 866 650 957 470 957 c 14
 452 957 l 22
 294 957 182 731 182 597 c 14
 182 513 l 29
182 1024 m 29
 182 0 l 29
EndSplineSet
EndChar

StartChar: ellipsis
Encoding: 8230 8230 266
Width: 922
VWidth: 1947
GlyphClass: 2
Flags: MW
LayerCount: 2
Fore
SplineSet
864 113 m 0
 864 61 823 12 768 12 c 0
 715 12 673 59 673 113 c 0
 673 165 714 213 768 213 c 0
 824 213 864 162 864 113 c 0
248 113 m 0
 248 61 208 12 153 12 c 0
 99 12 58 59 58 113 c 0
 58 165 98 213 153 213 c 0
 208 213 248 162 248 113 c 0
556 113 m 0
 556 61 515 12 460 12 c 0
 407 12 366 59 366 113 c 0
 366 165 406 213 460 213 c 0
 516 213 556 162 556 113 c 0
EndSplineSet
Validated: 3073
EndChar

StartChar: uparrow
Encoding: 8593 8593 267
Width: 922
VWidth: 1708
GlyphClass: 2
Flags: W
LayerCount: 2
Fore
SplineSet
922 -99 m 5
 0 -99 l 5
 0 1044 l 5
 922 1044 l 5
 922 -99 l 5
821 620 m 29
 461 991 l 29
 101 620 l 29
461 991 m 29
 461 209 l 29
EndSplineSet
EndChar

StartChar: downarrow
Encoding: 8595 8595 268
Width: 922
VWidth: 1708
GlyphClass: 2
Flags: W
LayerCount: 2
Fore
SplineSet
922 156 m 1
 0 156 l 1
 0 1299 l 1
 922 1299 l 1
 922 156 l 1
821 580 m 25
 461 209 l 25
 101 580 l 25
461 209 m 25
 461 991 l 25
EndSplineSet
EndChar

StartChar: spaceopenbox
Encoding: 9251 9251 269
Width: 922
VWidth: 1708
GlyphClass: 2
Flags: MW
LayerCount: 2
Fore
SplineSet
740 156 m 25
 740 -92 l 25
 182 -92 l 25
 182 156 l 25
EndSplineSet
EndChar

StartChar: uni2074
Encoding: 8308 8308 271
Width: 922
VWidth: 1947
GlyphClass: 2
Flags: MW
LayerCount: 2
Fore
SplineSet
118 1425 m 1
 792 1425 l 1
 792 544 l 1
 118 544 l 1
 118 1425 l 1
601 544 m 25
 601 1402 l 25
 178 807 l 25
 869 807 l 25
EndSplineSet
EndChar

StartChar: Eng
Encoding: 330 330 273
Width: 922
VWidth: 2334
GlyphClass: 2
Flags: MW
LayerCount: 2
Fore
SplineSet
330.333 -228 m 1
 364.967 -271.442 418.969 -294 475 -294 c 10
 526 -294 l 18
 660 -294 740 -170 740 -28 c 10
 740 1063 l 18
 740 1242 650 1333 470 1333 c 10
 452 1333 l 18
 294 1333 182 1107 182 973 c 10
 182 889 l 25
182 1400 m 25
 182 0 l 25
EndSplineSet
EndChar

StartChar: dcroat
Encoding: 273 273 274
Width: 922
VWidth: 1947
GlyphClass: 2
Flags: W
VStem: 182 558<220.939 427 597 823.211>
LayerCount: 2
Fore
SplineSet
370 1280 m 29
 862 1280 l 29
740 1400 m 25
 740 0 l 25
182 597 m 10
 182 427 l 18
 182 201 302 67 452 67 c 10
 470 67 l 18
 650 67 740 201 740 427 c 10
 740 597 l 18
 740 821 650 957 470 957 c 10
 452 957 l 18
 272 957 182 821 182 597 c 10
EndSplineSet
EndChar

StartChar: bullet
Encoding: 8226 8226 280
Width: 922
VWidth: 1947
GlyphClass: 2
Flags: MW
LayerCount: 2
Fore
SplineSet
654 669 m 0
 654 569 567 466 460 466 c 0
 352 466 267 572 267 669 c 0
 267 772 357 869 460 869 c 0
 563 869 654 772 654 669 c 0
EndSplineSet
Validated: 3073
EndChar

StartChar: florin
Encoding: 402 402 281
Width: 922
VWidth: 1947
GlyphClass: 2
Flags: MW
LayerCount: 2
Fore
SplineSet
831.045 1248 m 1
 798.494 1299.87 740.725 1333 675 1333 c 11
 573.516 1333 495.673 1248.38 491 1149 c 10
 431 -127 l 18
 425.578 -244.119 349.044 -311 247 -311 c 3
 191.936 -311 124.752 -278.776 88.7412 -220 c 1
180 795 m 25
 772 795 l 25
EndSplineSet
EndChar

StartChar: dagger
Encoding: 8224 8224 282
Width: 922
VWidth: 1947
GlyphClass: 2
Flags: MW
LayerCount: 2
Fore
SplineSet
462 1425 m 25
 461 -386 l 25
90 933 m 25
 832 933 l 25
EndSplineSet
EndChar

StartChar: daggerdbl
Encoding: 8225 8225 283
Width: 922
VWidth: 1947
GlyphClass: 2
Flags: MW
LayerCount: 2
Fore
SplineSet
90 106 m 25
 832 106 l 25
462 1425 m 25
 461 -386 l 25
90 933 m 25
 832 933 l 25
EndSplineSet
EndChar

StartChar: trademark
Encoding: 8482 8482 284
Width: 922
VWidth: 1947
GlyphClass: 2
Flags: MW
LayerCount: 2
Fore
SplineSet
0 466 m 1
 0 1400 l 1
 922 1400 l 1
 922 466 l 1
 736 466 l 1
 736 519 l 1
 589 519 l 1
 589 466 l 1
 0 466 l 1
488 411 m 25
 488 1401 l 25
 661 615 l 25
 834 1401 l 25
 833 411 l 25
236 469 m 25
 236 1308 l 25
36 1308 m 25
 436 1308 l 25
EndSplineSet
EndChar

StartChar: Ecyrillic
Encoding: 1028 1028 290
Width: 922
VWidth: 1708
GlyphClass: 2
Flags: W
HStem: -24 187<376.578 609.035> 636 187<271.795 631.272> 1025.62 21<649.176 745.286> 1203 186<383.896 583.125>
VStem: 85.271 186.195<312.104 636 823 1053.6>
LayerCount: 2
Fore
SplineSet
182 756 m 25
 560 755 l 25
711.697 310 m 0
 672.862 164.76 598.236 67 461 67 c 3
 213 67 172 383.733 172 700 c 3
 172 1024.1 216 1333 461 1333 c 3
 605.105 1333 679.432 1227.94 716.351 1076 c 0
EndSplineSet
EndChar

StartChar: Becyrillic
Encoding: 1041 1041 298
Width: 922
VWidth: 1947
GlyphClass: 2
Flags: MW
LayerCount: 2
Fore
SplineSet
182 755 m 25
 470 755 l 2
 650 755 740 666 740 485 c 2
 740 312 l 2
 740 133 659 67 470 67 c 2
 182 67 l 1
 182 1308 l 9
 742 1308 l 25
EndSplineSet
EndChar

StartChar: Gecyrillic
Encoding: 1043 1043 299
Width: 922
VWidth: 1947
GlyphClass: 2
Flags: MW
LayerCount: 2
Fore
SplineSet
182 0 m 29
 182 1307 l 29
 832 1307 l 29
EndSplineSet
EndChar

StartChar: Decyrillic
Encoding: 1044 1044 300
Width: 922
VWidth: 1947
GlyphClass: 2
Flags: MW
LayerCount: 2
Fore
SplineSet
142 -162 m 21
 142 93 l 13
 780 93 l 21
 780 -162 l 13
0 1425 m 5
 922 1425 l 5
 922 150 l 5
 832 -190 l 5
 95 -190 l 5
 0 150 l 5
 0 1425 l 5
212 93 m 21
 355 981 l 5
 377.944 1123.48 480 1260 602 1308 c 13
 720 1308 l 21
 720 93 l 13
EndSplineSet
EndChar

StartChar: Zhecyrillic
Encoding: 1046 1046 302
Width: 922
VWidth: 1947
GlyphClass: 2
Flags: MW
LayerCount: 2
Fore
SplineSet
0 1400 m 5
 922 1400 l 5
 922 0 l 5
 0 0 l 5
 0 1400 l 5
832 -85 m 29
 590 685 l 29
90 -85 m 29
 331 685 l 29
90 1500 m 29
 461 247 l 29
 832 1500 l 29
461 1333 m 29
 461 -20 l 29
EndSplineSet
EndChar

StartChar: Zecyrillic
Encoding: 1047 1047 303
Width: 922
VWidth: 1947
GlyphClass: 2
Flags: MW
LayerCount: 2
Fore
SplineSet
180 1158 m 5
 220 1264 326 1333 432 1333 c 14
 470 1333 l 22
 605 1333 695 1218 695 1063 c 14
 695 1022 l 22
 695 912 605 777 471 777 c 5
 302 777 l 13
 470 777 l 22
 650 777 740 641 740 417 c 14
 740 397 l 22
 740 177 650 67 470 67 c 14
 432 67 l 22
 310 67 162 156 162 337 c 5
EndSplineSet
EndChar

StartChar: Iicyrillic
Encoding: 1048 1048 304
Width: 922
VWidth: 1947
GlyphClass: 2
Flags: MW
LayerCount: 2
Fore
SplineSet
0 1400 m 5
 922 1400 l 5
 922 0 l 5
 0 0 l 5
 0 1400 l 5
740 0 m 29
 740 1333 l 29
 182 66 l 29
 182 1400 l 29
EndSplineSet
EndChar

StartChar: Elcyrillic
Encoding: 1051 1051 307
Width: 922
VWidth: 1947
GlyphClass: 2
Flags: MW
LayerCount: 2
Fore
SplineSet
0 1425 m 5
 922 1425 l 5
 922 0 l 5
 0 0 l 5
 0 1425 l 5
123 -99 m 20
 345 981 l 6
 376.378 1121.87 480 1260 602 1308 c 13
 740 1308 l 29
 740 0 l 29
EndSplineSet
EndChar

StartChar: Pecyrillic
Encoding: 1055 1055 311
Width: 922
VWidth: 1947
GlyphClass: 2
Flags: MW
LayerCount: 2
Fore
SplineSet
182 0 m 29
 182 1308 l 29
 740 1308 l 29
 740 0 l 29
EndSplineSet
EndChar

StartChar: Ucyrillic
Encoding: 1059 1059 315
Width: 922
VWidth: 1947
GlyphClass: 2
Flags: MW
LayerCount: 2
Fore
SplineSet
0 1400 m 1
 922 1400 l 1
 922 -40 l 1
 0 -40 l 1
 0 1400 l 1
780 1480 m 16
 479 246 l 2
 441.112 104.751 366 68 300 67 c 2
 272 67 l 2
 251.886 67 230.911 71.1586 211.333 77.7829 c 2
 182 90 l 9
142 1480 m 25
 531 459 l 25
EndSplineSet
EndChar

StartChar: Efcyrillic
Encoding: 1060 1060 316
Width: 922
VWidth: 1947
GlyphClass: 2
Flags: MW
LayerCount: 2
Fore
SplineSet
461 1425 m 25
 461 -25 l 25
461 1223 m 3
 708 1223 800 1024 800 700 c 3
 800 369 702 187 461 187 c 3
 213 187 122 384 122 700 c 3
 122 1024 216 1223 461 1223 c 3
EndSplineSet
EndChar

StartChar: Tsecyrillic
Encoding: 1062 1062 318
Width: 922
VWidth: 1947
GlyphClass: 2
Flags: MW
LayerCount: 2
Fore
SplineSet
0 1400 m 5
 870 1400 l 5
 870 -302 l 5
 0 -302 l 5
 0 1400 l 5
560 92 m 29
 795 92 l 29
 660 -189 l 29
182 1400 m 29
 182 92 l 29
 670 92 l 21
 670 1400 l 13
EndSplineSet
EndChar

StartChar: Checyrillic
Encoding: 1063 1063 319
Width: 922
VWidth: 1947
GlyphClass: 2
Flags: MW
LayerCount: 2
Fore
SplineSet
740 512 m 25
 452 512 l 2
 272 512 182 601 182 782 c 2
 182 1400 l 17
740 1400 m 1
 740 0 l 1
EndSplineSet
EndChar

StartChar: Shacyrillic
Encoding: 1064 1064 320
Width: 922
VWidth: 1947
GlyphClass: 2
Flags: MW
LayerCount: 2
Fore
SplineSet
461 1152 m 17
 461 92 l 9
132 1400 m 25
 132 92 l 25
 790 92 l 25
 790 1400 l 25
EndSplineSet
EndChar

StartChar: Shchacyrillic
Encoding: 1065 1065 321
Width: 922
VWidth: 1947
GlyphClass: 2
Flags: MW
LayerCount: 2
Fore
SplineSet
436 1152 m 17
 436 92 l 9
0 1400 m 1
 900 1400 l 1
 900 -302 l 1
 0 -302 l 1
 0 1400 l 1
580 92 m 25
 825 92 l 25
 690 -189 l 25
132 1400 m 25
 132 92 l 25
 740 92 l 17
 740 1400 l 9
EndSplineSet
EndChar

StartChar: Hardsigncyrillic
Encoding: 1066 1066 322
Width: 922
VWidth: 1947
GlyphClass: 2
Flags: W
HStem: 1405 20G<60 922>
VStem: 0 922<-60 680>
LayerCount: 2
Fore
SplineSet
60 1425 m 1
 922 1425 l 1
 922 -60 l 1
 0 -60 l 1
 0 680 l 1
 140 682 l 1
 140 974 l 1
 60 974 l 1
 60 1425 l 1
332 715 m 25
 530 715 l 2
 650 715 740 626 740 445 c 2
 740 337 l 2
 740 158 650 92 530 92 c 2
 332 92 l 1
 332 1308 l 9
 130 1308 l 25
 4 864 l 25
EndSplineSet
EndChar

StartChar: Yericyrillic
Encoding: 1067 1067 323
Width: 922
VWidth: 1947
GlyphClass: 2
Flags: MW
LayerCount: 2
Fore
SplineSet
770 1400 m 17
 770 0 l 9
152 765 m 29
 220 765 l 6
 400 765 490 676 490 495 c 6
 490 337 l 6
 490 158 409 92 220 92 c 6
 152 92 l 5
 152 1400 l 5
EndSplineSet
EndChar

StartChar: Softsigncyrillic
Encoding: 1068 1068 324
Width: 922
VWidth: 1947
GlyphClass: 2
Flags: MW
LayerCount: 2
Fore
SplineSet
182 715 m 29
 470 715 l 6
 650 715 740 626 740 445 c 6
 740 337 l 6
 740 158 659 92 470 92 c 6
 182 92 l 5
 182 1400 l 5
EndSplineSet
EndChar

StartChar: Ereversedcyrillic
Encoding: 1069 1069 325
Width: 922
VWidth: 1947
GlyphClass: 2
Flags: MW
LayerCount: 2
Fore
SplineSet
362 756 m 25
 740 755 l 25
208.819 315 m 1
 247.274 167.008 322.029 67 460.834 67 c 3
 708.834 67 749.834 383.733 749.834 700 c 3
 749.834 1024.1 705.834 1333 460.834 1333 c 3
 316.097 1333 241.752 1227.02 205 1074 c 1
EndSplineSet
EndChar

StartChar: IUcyrillic
Encoding: 1070 1070 326
Width: 922
VWidth: 1947
GlyphClass: 2
Flags: MW
LayerCount: 2
Fore
SplineSet
142 700 m 25
 420 700 l 25
132 1400 m 17
 132 0 l 9
611 1333 m 0
 755.004 1333 790 1024.35 790 700 c 0
 790 369 755.031 67 611 67 c 0
 466.996 67 432 383.733 432 700 c 0
 432 1024.1 466.969 1333 611 1333 c 0
EndSplineSet
EndChar

StartChar: IAcyrillic
Encoding: 1071 1071 327
Width: 922
VWidth: 1947
GlyphClass: 2
Flags: MW
LayerCount: 2
Fore
SplineSet
0 1458 m 1
 922 1458 l 1
 922 0 l 1
 0 0 l 1
 0 1458 l 1
100 -102 m 25
 461 680 l 25
740 685 m 25
 452 685 l 2
 272 685 182 775 182 956 c 2
 182 1063 l 2
 182 1242 263 1308 452 1308 c 2
 740 1308 l 1
 740 0 l 1
EndSplineSet
EndChar

StartChar: becyrillic
Encoding: 1073 1073 329
Width: 922
VWidth: 2334
GlyphClass: 2
Flags: HMWO
LayerCount: 2
Fore
SplineSet
740 1354 m 21
 634 1314 609.302 1308.03 460 1308 c 5
 322 1308 182 1204.08 182 936 c 6
 182 510 l 13
182 597 m 14
 182 427 l 22
 182 201 302 67 452 67 c 14
 470 67 l 22
 650 67 740 201 740 427 c 14
 740 597 l 22
 740 821 650 957 470 957 c 14
 452 957 l 22
 272 957 182 821 182 597 c 14
EndSplineSet
EndChar

StartChar: vecyrillic
Encoding: 1074 1074 330
Width: 922
VWidth: 2334
GlyphClass: 2
Flags: MW
LayerCount: 2
Fore
SplineSet
182 92 m 17
 489.429 92 l 18
 669 92 759 181 759 316 c 10
 759 325 l 18
 759 458 668 549 489 549 c 2
 182 549 l 1
 436 549 l 2
 616 549 706 625 706 740 c 3
 706 855 616 932 436 932 c 2
 182 932 l 9
 182 92 l 17
EndSplineSet
EndChar

StartChar: gecyrillic
Encoding: 1075 1075 331
Width: 922
VWidth: 1947
GlyphClass: 2
Flags: MW
LayerCount: 2
Fore
SplineSet
152 687 m 17
 152 717.786 159.126 748.677 171.74 778 c 1
 214.031 876.312 318.015 957 422 957 c 10
 440 957 l 18
 575 957 710 920 710 757 c 2
 710 745 l 2
 710 691.311 676.861 648.068 620 624.735 c 2
 244 450.441 l 2
 184.431 422.828 152 367.928 152 300.938 c 2
 152 287 l 2
 152 151 287 67 422 67 c 10
 470 67 l 18
 606.066 67 740 202.727 740 337 c 8
EndSplineSet
EndChar

StartChar: decyrillic
Encoding: 1076 1076 332
Width: 922
VWidth: 1947
GlyphClass: 2
Flags: MW
LayerCount: 2
Fore
SplineSet
142 -162 m 17
 142 93 l 9
 780 93 l 17
 780 -162 l 9
0 1049 m 1
 922 1049 l 1
 922 150 l 1
 832 -190 l 1
 95 -190 l 1
 0 150 l 1
 0 1049 l 1
212 93 m 17
 295 605 l 1
 317.944 747.48 470 906 602 932 c 9
 720 932 l 17
 720 93 l 9
EndSplineSet
EndChar

StartChar: zhecyrillic
Encoding: 1078 1078 334
Width: 922
VWidth: 1947
GlyphClass: 2
Flags: MW
LayerCount: 2
Fore
SplineSet
0 1400 m 1
 922 1400 l 1
 922 0 l 1
 0 0 l 1
 0 1400 l 1
832 -142.172 m 25
 594 494 l 25
90 -142.172 m 25
 326 494 l 25
90 1037.14 m 25
 461 180.663 l 25
 832 1037.14 l 25
461 1023.99 m 25
 461 -14.6289 l 25
EndSplineSet
EndChar

StartChar: zecyrillic
Encoding: 1079 1079 335
Width: 922
VWidth: 1947
GlyphClass: 2
Flags: MW
LayerCount: 2
Fore
SplineSet
180 781 m 1
 220 887 326 956 432 956 c 10
 470 956 l 18
 605 956 695 866 695 776 c 10
 695 765 l 18
 695 654 605 560 471 560 c 1
 362 560 l 9
 470 560 l 18
 650 560 740 450 740 334 c 10
 740 314 l 18
 740 201 650 67 470 67 c 10
 452 67 l 18
 330 67 182 156 182 297 c 1
EndSplineSet
EndChar

StartChar: iicyrillic
Encoding: 1080 1080 336
Width: 922
VWidth: 1947
GlyphClass: 2
Flags: MW
LayerCount: 2
Fore
SplineSet
0 1023 m 1
 922 1023 l 1
 922 0 l 1
 0 0 l 1
 0 1023 l 1
740 0 m 25
 740 956 l 25
 182 66 l 25
 182 1023 l 25
EndSplineSet
EndChar

StartChar: kacyrillic
Encoding: 1082 1082 338
Width: 922
VWidth: 1947
GlyphClass: 2
Flags: MW
LayerCount: 2
Fore
SplineSet
0 1308 m 1
 922 1308 l 1
 922 0 l 1
 0 0 l 1
 0 1308 l 1
834 -125 m 25
 392 458 l 25
770 996 m 25
 182 158 l 25
182 1023 m 25
 182 -25 l 25
EndSplineSet
EndChar

StartChar: elcyrillic
Encoding: 1083 1083 339
Width: 922
VWidth: 1947
GlyphClass: 2
Flags: MW
LayerCount: 2
Fore
SplineSet
0 1048 m 1
 922 1048 l 1
 922 0 l 1
 0 0 l 1
 0 1048 l 1
123 -99 m 16
 305 604 l 2
 336.378 744.87 480 883 602 931 c 9
 740 931 l 25
 740 0 l 25
EndSplineSet
EndChar

StartChar: emcyrillic
Encoding: 1084 1084 340
Width: 922
VWidth: 1947
GlyphClass: 2
Flags: MW
LayerCount: 2
Fore
SplineSet
0 0.331055 m 5
 0 1024.33 l 5
 922 1024.33 l 5
 922 0.331055 l 5
 610.5 0.331055 l 5
 610 92.3311 l 5
 317 92.3311 l 5
 317 0.331055 l 5
 0 0.331055 l 5
96 -74.6689 m 29
 184 1025.33 l 29
 461 151.331 l 29
 740 1025.33 l 29
 825.998 -75 l 29
EndSplineSet
EndChar

StartChar: encyrillic
Encoding: 1085 1085 341
Width: 922
VWidth: 1947
GlyphClass: 2
Flags: MW
LayerCount: 2
Fore
SplineSet
182 470 m 29
 740 470 l 29
740 1023 m 29
 740 0 l 29
182 1023 m 29
 182 0 l 29
EndSplineSet
EndChar

StartChar: tecyrillic
Encoding: 1090 1090 346
Width: 922
VWidth: 1947
GlyphClass: 2
Flags: MW
LayerCount: 2
Fore
SplineSet
461 0 m 29
 461 933 l 29
70 933 m 29
 852 933 l 29
EndSplineSet
EndChar

StartChar: efcyrillic
Encoding: 1092 1092 348
Width: 922
VWidth: 1947
GlyphClass: 2
Flags: MW
LayerCount: 2
Fore
SplineSet
461 1049 m 25
 461 -386 l 25
461 876 m 3
 671.06 876 790 736.154 790 473 c 3
 790 206 671.117 67 461 67 c 3
 250.998 67 132 205.849 132 473 c 3
 132 736.068 250.99 876 461 876 c 3
EndSplineSet
EndChar

StartChar: tsecyrillic
Encoding: 1094 1094 350
Width: 922
VWidth: 2334
GlyphClass: 2
Flags: MW
LayerCount: 2
Fore
SplineSet
182 1024 m 25
 182 337 l 18
 182 158 252 67 432 67 c 10
 450 67 l 18
 608 67 740 313 740 447 c 10
 740 531 l 25
740 1024 m 25
 740 96 l 17
 778.044 59.4102 782 7.2373 782 -56 c 3
 782 -114 724 -188 660 -228 c 9
EndSplineSet
EndChar

StartChar: checyrillic
Encoding: 1095 1095 351
Width: 922
VWidth: 1947
GlyphClass: 2
Flags: MW
LayerCount: 2
Fore
SplineSet
182 1024 m 25
 182 697 l 18
 182 518 252 427 432 427 c 10
 450 427 l 18
 608 427 740 673 740 807 c 10
 740 891 l 25
740 1024 m 25
 740 0 l 17
EndSplineSet
EndChar

StartChar: shacyrillic
Encoding: 1096 1096 352
Width: 922
VWidth: 2334
GlyphClass: 2
Flags: MW
LayerCount: 2
Fore
SplineSet
142 1024 m 29
 142 247 l 22
 142 116 195 67 277 67 c 14
 287 67 l 22
 385 67 461 203 461 337 c 14
 461 421 l 29
461 1024 m 29
 461 247 l 22
 461 116 514 67 596 67 c 14
 606 67 l 22
 704 67 780 203 780 337 c 14
 780 421 l 29
780 0 m 29
 780 1024 l 29
EndSplineSet
EndChar

StartChar: shchacyrillic
Encoding: 1097 1097 353
Width: 922
VWidth: 2334
GlyphClass: 2
Flags: MW
LayerCount: 2
Fore
SplineSet
142 1024 m 25
 142 247 l 18
 142 116 195 67 277 67 c 10
 287 67 l 18
 385 67 461 203 461 337 c 10
 461 421 l 25
461 1024 m 25
 461 247 l 18
 461 116 514 67 596 67 c 10
 606 67 l 18
 704 67 780 203 780 337 c 10
 780 421 l 25
700 -228 m 17
 764 -188 822 -114 822 -56 c 3
 822 7.2373 818.044 59.4104 780 96 c 1
 780 1024 l 9
EndSplineSet
EndChar

StartChar: hardsigncyrillic
Encoding: 1098 1098 354
Width: 922
VWidth: 1947
GlyphClass: 2
Flags: MW
LayerCount: 2
Fore
SplineSet
60 1023 m 1
 922 1023 l 1
 922 -60 l 1
 0 -60 l 1
 0 278 l 1
 140 280 l 1
 140 572 l 1
 60 572 l 1
 60 1023 l 1
332 561 m 25
 470 561 l 18
 604 561 740 470 740 337 c 2
 740 291 l 2
 740 156 604.998 91.9785 470 91 c 10
 332 91 l 25
 332 906 l 25
 130 906 l 25
 4 462 l 25
EndSplineSet
EndChar

StartChar: yericyrillic
Encoding: 1099 1099 355
Width: 922
VWidth: 1947
GlyphClass: 2
Flags: MW
LayerCount: 2
Fore
SplineSet
790 0 m 25
 790 1023 l 25
132 1023 m 25
 132 92 l 25
 240 92 l 18
 375 92 490 156 490 291 c 2
 490 337 l 2
 490 470 374 561 240 561 c 10
 132 561 l 25
EndSplineSet
EndChar

StartChar: softsigncyrillic
Encoding: 1100 1100 356
Width: 922
VWidth: 1947
GlyphClass: 2
Flags: MW
LayerCount: 2
Fore
SplineSet
182 1048 m 25
 182 92 l 29
 470 92 l 22
 605 92 740 156 740 291 c 6
 740 337 l 6
 740 470 604 561 470 561 c 14
 182 561 l 29
EndSplineSet
EndChar

StartChar: ereversedcyrillic
Encoding: 1101 1101 357
Width: 922
VWidth: 1947
GlyphClass: 2
Flags: MW
LayerCount: 2
Fore
SplineSet
317 512 m 29
 724 512 l 29
182 798 m 5
 214 904 299 956 437 956 c 14
 455 956 l 22
 635 956 725 821 725 597 c 14
 725 427 l 22
 725 201 605 67 455 67 c 14
 437 67 l 22
 301 67 217 118 183 220 c 5
EndSplineSet
EndChar

StartChar: iucyrillic
Encoding: 1102 1102 358
Width: 922
VWidth: 1947
GlyphClass: 2
Flags: MW
LayerCount: 2
Fore
SplineSet
142 512 m 25
 402 512 l 25
142 1023 m 25
 142 0 l 25
591 956 m 3
 735.014 956 780 780 780 513 c 3
 780 244 735.004 67 591 67 c 3
 446.996 67 402 243.998 402 513 c 3
 402 780.002 446.986 956 591 956 c 3
EndSplineSet
EndChar

StartChar: iacyrillic
Encoding: 1103 1103 359
Width: 922
VWidth: 1947
GlyphClass: 2
Flags: W
LayerCount: 2
Fore
SplineSet
162 18 m 25
 471 470 l 25
740 0 m 25
 740 931 l 25
 452 931 l 18
 317 931 182 867 182 732 c 2
 182 711 l 2
 182 578 318 487 452 487 c 10
 740 487 l 25
EndSplineSet
EndChar

StartChar: ecyrillic
Encoding: 1108 1108 362
Width: 922
VWidth: 1947
GlyphClass: 2
Flags: W
HStem: -28 187<334.41 618.281> 443 176<259 590> 864 181<344.825 620.404>
VStem: 75 181<245.25 443>
DStem2: 849 804 699 721 0.496139 -0.868243<-171.391 -2.35666>
LayerCount: 2
Fore
SplineSet
606 512 m 25
 199 512 l 25
741 798 m 1
 709 904 624 956 486 956 c 10
 468 956 l 18
 288 956 198 821 198 597 c 10
 198 427 l 18
 198 201 318 67 468 67 c 10
 486 67 l 18
 622 67 706 118 740 220 c 1
EndSplineSet
EndChar

StartChar: numero
Encoding: 8470 8470 372
Width: 922
VWidth: 1947
Flags: MW
LayerCount: 2
Fore
SplineSet
708 1225.25 m 3
 797.5 1225.25 831 1091.15 831 886.85 c 3
 831 680.75 797.5 545.75 708 545.75 c 3
 618.5 545.75 585 680.75 585 886.85 c 3
 585 1091.15 618.5 1225.25 708 1225.25 c 3
0 1400 m 1
 922 1400 l 1
 922 0 l 1
 0 0 l 1
 0 1400 l 1
112 0 m 25
 112 1405 l 25
 470 -5 l 25
 470 1400 l 25
EndSplineSet
EndChar

StartChar: caroncomb
Encoding: 780 780 377
Width: 922
VWidth: 1947
Flags: MW
LayerCount: 2
Fore
SplineSet
261 1600 m 25
 461 1460 l 25
 661 1600 l 25
0 1422 m 1
 0 1736 l 1
 922 1736 l 1
 922 1422 l 1
 0 1422 l 1
EndSplineSet
EndChar

StartChar: gravecomb
Encoding: 768 768 379
Width: 922
VWidth: 2334
Flags: MW
LayerCount: 2
Fore
SplineSet
392 1647 m 25
 590 1438 l 25
EndSplineSet
EndChar

StartChar: acutecomb
Encoding: 769 769 380
Width: 922
VWidth: 2334
Flags: MW
LayerCount: 2
Fore
SplineSet
530 1647 m 25
 332 1438 l 25
EndSplineSet
EndChar

StartChar: tildecomb
Encoding: 771 771 381
Width: 922
VWidth: 1947
Flags: MW
LayerCount: 2
Fore
SplineSet
182 1502 m 17
 202 1527.55 l 2
 236.359 1571.44 274.987 1612 344 1612 c 10
 360 1612 l 18
 395.216 1612 428.901 1594.99 451 1575.76 c 2
 470 1558.89 l 2
 492.258 1539.39 525.831 1522 561 1522 c 10
 578 1522 l 18
 648 1522 687.659 1562 723 1609.27 c 2
 740 1632 l 9
EndSplineSet
EndChar

StartChar: hookabovecomb
Encoding: 777 777 382
Width: 922
VWidth: 1947
Flags: MW
LayerCount: 2
Fore
SplineSet
468 1255 m 1
 468 1387 l 1
 609 1387 666 1416.08 666 1495 c 3
 666 1579.48 564.476 1606 480 1606 c 27
 398.519 1606 341.163 1589.67 279 1549 c 9
EndSplineSet
EndChar

StartChar: dotbelowcomb
Encoding: 803 803 383
Width: 922
VWidth: 2334
Flags: MW
LayerCount: 2
Fore
SplineSet
342 -253 m 31
 342 -187 394 -133 461 -133 c 31
 527 -133 582 -187 582 -253 c 31
 582 -319 527 -373 461 -373 c 31
 394 -373 342 -319 342 -253 c 31
EndSplineSet
EndChar

StartChar: commaturnedabovecmb
Encoding: 786 786 396
Width: 922
VWidth: 1947
Flags: MW
LayerCount: 2
Fore
SplineSet
498 18 m 17
 498 0 l 1
 489 -132 l 1
 630 -132 687 -191.082 687 -270 c 3
 687 -354.476 592.027 -411 501 -411 c 27
 417.055 -411 352 -379 300 -334 c 9
EndSplineSet
EndChar

StartChar: Hbar
Encoding: 294 294 400
Width: 922
VWidth: 1947
Flags: W
LayerCount: 2
Fore
SplineSet
60 1170 m 29
 862 1170 l 29
182 700 m 25
 740 700 l 25
740 1400 m 25
 740 0 l 25
182 1400 m 25
 182 0 l 25
EndSplineSet
EndChar

StartChar: hbar
Encoding: 295 295 401
Width: 922
VWidth: 1947
Flags: W
LayerCount: 2
Fore
SplineSet
60 1280 m 25
 552 1280 l 25
740 0 m 25
 740 687 l 18
 740 866 650 957 470 957 c 10
 452 957 l 18
 294 957 182 731 182 597 c 10
 182 513 l 25
182 1400 m 25
 182 0 l 25
EndSplineSet
EndChar

StartChar: IJ
Encoding: 306 306 410
Width: 922
VWidth: 1947
Flags: W
LayerCount: 2
Fore
SplineSet
427 337 m 9
 515 337 l 18
 605 337 650 425 650 597 c 10
 650 1308 l 25
40 92 m 25
 562 92 l 25
271 92 m 17
40 1308 m 25
 882 1308 l 1
271 1308.59 m 1
 271 92 l 9
EndSplineSet
EndChar

StartChar: Tbar
Encoding: 358 358 430
Width: 922
VWidth: 1947
Flags: W
HStem: 0 21<344 567> 491 129<63.7293 845.336> 1197 203<49 344 567 859>
VStem: 63.7293 781.606<491 620> 344 223<0 1197>
LayerCount: 2
Fore
SplineSet
63 560 m 29
 846 560 l 29
461 0 m 25
 461 1308 l 25
70 1308 m 25
 852 1308 l 25
EndSplineSet
EndChar

StartChar: tbar
Encoding: 359 359 431
Width: 922
VWidth: 1947
Flags: W
HStem: -19 209<493.818 713.488> 522 130<73.8504 844.924> 839 182<76 251 473 761>
VStem: 73.8504 771.074<522 652> 228 216<235.871 833.119> 251 215<420.546 839> 285 214<1094 1308>
DStem2: 265 1021 473 1021 0.0695178 0.997581<14.4597 287.696>
LayerCount: 2
Fore
SplineSet
0 1425 m 1
 922 1425 l 1
 922 -84 l 1
 0 -84 l 1
 0 1425 l 1
90 916 m 25
 740 916 l 25
720 247 m 17
 720 224.99 714.494 202.85 704.844 182 c 1
 675.479 118.55 607.739 67 540 67 c 10
 522 67 l 18
 432 67 337.498 158.108 342 248 c 2
 405 1506 l 9
63 560 m 25
 846 560 l 25
EndSplineSet
EndChar

StartChar: A
Encoding: 65 65 461
Width: 922
VWidth: 1708
Flags: MW
LayerCount: 2
Fore
SplineSet
0 0 m 5
 0 1425 l 5
 922 1425 l 5
 922 0 l 5
 0 0 l 5
234 324 m 29
 688 324 l 29
157 -25 m 29
 461 1370.25 l 29
 765 -25 l 29
EndSplineSet
EndChar

StartChar: Lambda
Encoding: 923 923 462
Width: 922
VWidth: 1708
Flags: MW
LayerCount: 2
Fore
SplineSet
0 0 m 5
 0 1425 l 5
 922 1425 l 5
 922 0 l 5
 0 0 l 5
157 -25 m 29
 461 1370.25 l 29
 765 -25 l 29
EndSplineSet
EndChar

StartChar: Delta
Encoding: 916 916 463
Width: 922
VWidth: 1708
Flags: MW
LayerCount: 2
Fore
SplineSet
0 0 m 5
 0 1425 l 5
 922 1425 l 5
 922 0 l 5
 0 0 l 5
740 92.0078 m 13
 461 1370.25 l 21
 181.492 92 l 5
 740 92.0078 l 13
EndSplineSet
EndChar

StartChar: Theta
Encoding: 920 920 464
Width: 922
VWidth: 1947
Flags: MW
LayerCount: 2
Fore
SplineSet
461 1333 m 7
 708 1333 750 1024.35 750 700 c 7
 750 369 702.207 67 461 67 c 7
 213 67 172 383.733 172 700 c 7
 172 1024.1 216 1333 461 1333 c 7
340 699 m 21
 434.38 699 487.62 699 582 699 c 13
EndSplineSet
EndChar

StartChar: Xi
Encoding: 926 926 465
Width: 922
VWidth: 1708
Flags: W
LayerCount: 2
Fore
SplineSet
182 337 m 25
 182 92 l 25
 740 92 l 25
 740 337 l 25
272 700 m 25
 650 700 l 25
182 1049 m 25
 182 1308 l 25
 740 1308 l 25
 740 1049 l 25
EndSplineSet
EndChar

StartChar: Sigma
Encoding: 931 931 468
Width: 922
VWidth: 1947
Flags: MW
LayerCount: 2
Fore
SplineSet
90 1425 m 1
 834 1425 l 1
 834 -25 l 1
 90 -25 l 1
 90 1425 l 1
832 67 m 1
 152 67 l 1
 462 702 l 1
 152 1308 l 1
 832 1308 l 1
EndSplineSet
EndChar

StartChar: Psi
Encoding: 936 936 473
Width: 922
VWidth: 1947
Flags: MW
LayerCount: 2
Fore
SplineSet
760 1333 m 25
 760 696 l 18
 760 594.202 685.666 512 576 512 c 10
 346 512 l 18
 247 512 162 600 162 696 c 10
 162 1333 l 25
461 1425 m 25
 461 -24 l 25
EndSplineSet
EndChar

StartChar: Omega
Encoding: 937 937 474
Width: 922
VWidth: 1947
Flags: MW
LayerCount: 2
Fore
SplineSet
90 92 m 1
 291 92 l 0
 290.525 375 l 1
 193.134 474.106 172 664.471 172 830 c 3
 172 1107.18 216 1333 461 1333 c 3
 708 1333 750 1095.02 750 830 c 3
 750 662.815 727.613 473.609 630.995 375 c 1
 631 92 l 1
 832 92 l 25
EndSplineSet
EndChar

StartChar: alpha
Encoding: 945 945 483
Width: 922
VWidth: 1947
Flags: MW
LayerCount: 2
Fore
SplineSet
780 1024 m 1
 603.79 223 l 2
 583.337 130.026 519 67 411 67 c 3
 250.847 67 172 243.998 172 513 c 3
 172 780.002 250.922 956 411 956 c 3
 519.005 956 584.165 890.814 604.436 800 c 2
 783 0 l 17
EndSplineSet
EndChar

StartChar: beta
Encoding: 946 946 484
Width: 922
VWidth: 2334
Flags: MW
LayerCount: 2
Fore
SplineSet
182 -321 m 25
 182 687 l 18
 182 866 272 957 452 957 c 10
 456 957 l 18
 636 957 726 867 726 752 c 3
 726 637 636 549 456 549 c 2
 401 549 l 1
 489 549 l 2
 668 549 759 458 759 325 c 10
 759 291 l 18
 759 156 669 67 489.429 67 c 10
 452 67 l 18
 272 67 182 156 182 291 c 10
EndSplineSet
EndChar

StartChar: gamma
Encoding: 947 947 485
Width: 922
VWidth: 2334
Flags: MW
LayerCount: 2
Fore
SplineSet
0 1024 m 1
 922 1024 l 1
 922 -386 l 1
 0 -386 l 1
 0 1024 l 1
462 -386 m 25
 462 93 l 25
164 1086 m 25
 461 66 l 25
 753 1069 l 25
EndSplineSet
EndChar

StartChar: delta
Encoding: 948 948 486
Width: 922
VWidth: 2334
Flags: MW
LayerCount: 2
Fore
SplineSet
120 1455 m 1
 922 1455 l 1
 922 -51 l 1
 0 -51 l 1
 0 1098 l 1
 120 1098 l 1
 120 1455 l 1
740 1308 m 25
 182 1308 l 25
 639 898 l 25
182 597 m 10
 182 427 l 18
 182 201 302 67 452 67 c 10
 470 67 l 18
 650 67 740 201 740 427 c 10
 740 597 l 18
 740 821 650 957 470 957 c 10
 452 957 l 18
 272 957 182 821 182 597 c 10
EndSplineSet
EndChar

StartChar: epsilon
Encoding: 949 949 487
Width: 922
VWidth: 2334
Flags: W
LayerCount: 2
Fore
SplineSet
711.517 868 m 5
 676 918 598 957 490 957 c 14
 452 957 l 22
 272 957 182 866.06 182 732 c 7
 182 622.648 266.667 533 456 533 c 14
 608 533 l 29
 456 533 l 22
 266.667 533 182 402 182 317 c 14
 182 300 l 22
 182 156 272 67 452 67 c 14
 490 67 l 22
 605 67 664 98 710.229 156 c 5
EndSplineSet
EndChar

StartChar: zeta
Encoding: 950 950 488
Width: 922
VWidth: 2334
Flags: MW
LayerCount: 2
Fore
SplineSet
0 1389 m 1
 832 1389 l 1
 832 512 l 1
 922 512 l 1
 922 -411 l 1
 0 -411 l 1
 0 1389 l 1
372 1049 m 17
 470 957 605 932 740 932 c 1
 693 872 635 820 570 774 c 2
 365 627 l 2
 259 552 182 467 182 357 c 10
 182 337 l 18
 182 156 272 67 452 67 c 10
 470 67 l 18
 650 67 740 0 740 -104 c 3
 740 -263 650 -294 461 -294 c 9
EndSplineSet
EndChar

StartChar: eta
Encoding: 951 951 489
Width: 922
VWidth: 2334
Flags: MW
LayerCount: 2
Fore
SplineSet
740 -387 m 29
 740 687 l 22
 740 866 650 957 470 957 c 14
 452 957 l 22
 294 957 182 731 182 597 c 14
 182 513 l 29
182 1024 m 29
 182 0 l 29
EndSplineSet
EndChar

StartChar: theta
Encoding: 952 952 490
Width: 922
VWidth: 1947
Flags: MW
LayerCount: 2
Fore
SplineSet
461 956 m 3
 671.06 956 750 780 750 513 c 3
 750 244 671.117 67 461 67 c 3
 250.998 67 172 243.998 172 513 c 3
 172 780.002 250.99 956 461 956 c 3
170 512 m 17
 264.38 512 657.62 512 752 512 c 9
EndSplineSet
EndChar

StartChar: lambda
Encoding: 955 955 491
Width: 922
VWidth: 2334
Flags: MW
LayerCount: 2
Fore
SplineSet
0 0 m 5
 0 1410 l 5
 922 1410 l 5
 922 0 l 5
 0 0 l 5
308 1487 m 29
 699 138 l 29
164 -62 m 29
 461 958 l 29
 753 -45 l 29
EndSplineSet
EndChar

StartChar: xi
Encoding: 958 958 494
Width: 922
VWidth: 2334
Flags: MW
LayerCount: 2
Fore
SplineSet
0 1425 m 1
 740 1425 l 1
 740 772 l 1
 922 772 l 1
 922 -410 l 1
 0 -410 l 1
 0 1425 l 1
458 -294 m 17
 568 -294 740 -220 740 -120 c 10
 740 -88 l 18
 740 -8 560 67 490 67 c 10
 452 67 l 18
 272 67 182 156 182 300 c 10
 182 317 l 18
 182 402 266.667 533 456 533 c 10
 648 533 l 25
 456 533 l 18
 266.667 533 182 622.648 182 732 c 0
 182 994.031 438 954 600 1077 c 1
 461 1083 366 1119 278 1212 c 9
EndSplineSet
EndChar

StartChar: pi
Encoding: 960 960 496
Width: 922
VWidth: 2334
Flags: MW
LayerCount: 2
Fore
SplineSet
90 1333 m 5
 832 1333 l 5
 832 0 l 5
 90 0 l 5
 90 1333 l 5
10 812 m 21
 70 878 146 932 292 932 c 6
 630 932 l 6
 780 932 864 988 912 1062 c 13
650 932 m 29
 650 200 l 22
 650 92 702 -80 782 -142 c 13
140 -142 m 21
 214 -80 272 96 272 200 c 14
 272 932 l 29
EndSplineSet
EndChar

StartChar: rho
Encoding: 961 961 497
Width: 922
VWidth: 2334
Flags: MW
LayerCount: 2
Fore
SplineSet
182 -386 m 25
 182 514 l 25
740 427 m 10
 740 597 l 18
 740 823 620 957 470 957 c 10
 452 957 l 18
 272 957 182 823 182 597 c 10
 182 427 l 18
 182 203 272 67 452 67 c 10
 470 67 l 18
 650 67 740 203 740 427 c 10
EndSplineSet
EndChar

StartChar: sigmafinal
Encoding: 962 962 498
Width: 922
VWidth: 2059
Flags: MW
LayerCount: 2
Fore
SplineSet
782.5 902 m 9
 742 917 l 18
 412.78 1038.93 182 866 182 597 c 10
 182 427 l 18
 182 201 302 67 452 67 c 10
 470 67 l 18
 605 67 740 -9.24538e-14 740 -92.5293 c 2
 740 -111 l 2
 740 -227 628 -294 458 -294 c 9
EndSplineSet
EndChar

StartChar: sigma
Encoding: 963 963 499
Width: 922
VWidth: 1947
Flags: MW
LayerCount: 2
Fore
SplineSet
862 933 m 25
 530 932 l 25
431 956 m 3
 605.011 956 690 780 690 513 c 3
 690 244 605.003 67 431 67 c 3
 241.997 67 172 243.998 172 513 c 3
 172 780.002 241.904 956 431 956 c 3
EndSplineSet
EndChar

StartChar: tau
Encoding: 964 964 500
Width: 922
VWidth: 2334
Flags: MW
LayerCount: 2
Fore
SplineSet
90 1333 m 1
 832 1333 l 1
 832 0 l 1
 90 0 l 1
 90 1333 l 1
10 812 m 17
 70 878 146 932 292 932 c 2
 630 932 l 2
 780 932 864 988 912 1062 c 9
289 -142 m 17
 376 -88 461 61.9999 461 200 c 1
 461 932 l 9
EndSplineSet
EndChar

StartChar: upsilon
Encoding: 965 965 501
Width: 922
VWidth: 1947
Flags: MW
LayerCount: 2
Fore
SplineSet
531 956 m 3
 712.276 956 750 780 750 513 c 3
 750 244 671.117 67 461 67 c 3
 250.998 67 182 243.998 182 513 c 0
 182 1023 l 1
EndSplineSet
EndChar

StartChar: phi
Encoding: 966 966 502
Width: 922
VWidth: 1947
Flags: MW
LayerCount: 2
Fore
SplineSet
461 -386 m 1
 461 702 l 2
 461 866 524.994 956 605 956 c 3
 731.016 956 790 780 790 513 c 3
 790 244 671.117 67 461 67 c 3
 250.998 67 132 243.998 132 513 c 2
 132 956 l 1
EndSplineSet
EndChar

StartChar: chi
Encoding: 967 967 503
Width: 922
VWidth: 2062
Flags: MW
LayerCount: 2
Fore
SplineSet
0 1023 m 1
 922 1023 l 1
 922 -387 l 1
 0 -387 l 1
 0 1023 l 1
832 1311 m 25
 90 -690 l 17
-78 1197 m 1
 588 1014 279 -243 954 -543 c 9
EndSplineSet
EndChar

StartChar: psi
Encoding: 968 968 504
Width: 922
VWidth: 1947
Flags: MW
LayerCount: 2
Fore
SplineSet
461 -386 m 1
 461 1049 l 17
790 956 m 0
 790 513 l 3
 790 244 671.117 67 461 67 c 3
 250.998 67 132 243.998 132 513 c 2
 132 956 l 1
EndSplineSet
EndChar

StartChar: omega
Encoding: 969 969 505
Width: 922
VWidth: 2334
Flags: MW
LayerCount: 2
Fore
SplineSet
0 -114 m 1
 0 1024 l 1
 922 1024 l 1
 922 -114 l 1
 0 -114 l 1
317 1134 m 17
 225 1094 142 868 142 702 c 10
 142 336 l 18
 142 205 206 67 288 67 c 10
 298 67 l 18
 396 67 461 116 461 247 c 10
 461 700 l 25
 461 247 l 18
 461 116 538 67 620 67 c 10
 630 67 l 18
 728 67 780 203 780 337 c 10
 780 702 l 18
 780 868 697 1094 605 1132 c 9
EndSplineSet
EndChar

StartChar: dieresiscmb
Encoding: 776 776 508
Width: 922
VWidth: 1947
Flags: MW
LayerCount: 2
Fore
SplineSet
386 1386 m 0
 386 1323 335 1267 273 1267 c 0
 212 1267 159 1320 159 1386 c 0
 159 1456 215 1501 272 1501 c 0
 337 1501 386 1447 386 1386 c 0
762 1386 m 0
 762 1317 707 1267 650 1267 c 0
 590 1267 537 1321 537 1386 c 0
 537 1452 590 1501 650 1501 c 0
 705 1501 762 1456 762 1386 c 0
EndSplineSet
Validated: 3073
EndChar

StartChar: Djecyrillic
Encoding: 1026 1026 512
Width: 922
VWidth: 2334
Flags: MW
LayerCount: 2
Fore
SplineSet
362 263 m 25
 362 417 l 18
 362 755 506 887 582 887 c 10
 600 887 l 18
 699 887 770 825 770 687 c 2
 770 336 l 2
 770 194 740 92 625 92 c 10
 607 92 l 25
362 1308 m 25
 362 0 l 25
70 1308 m 25
 742 1308 l 25
EndSplineSet
EndChar

StartChar: Ljecyrillic
Encoding: 1033 1033 513
Width: 922
VWidth: 1947
Flags: MW
LayerCount: 2
Fore
SplineSet
0 1425 m 1
 922 1425 l 1
 922 -100 l 1
 296 -100 l 1
 296 0 l 1
 0 0 l 1
 0 1425 l 1
117 -126 m 25
 222 1075 l 18
 230.771 1183.02 291 1308 333 1308 c 10
 472 1308 l 1
 472 92 l 1
 540 92 l 2
 729 92 810 158 810 337 c 2
 810 495 l 2
 810 676 720 765 540 765 c 2
 472 765 l 25
EndSplineSet
EndChar

StartChar: Njecyrillic
Encoding: 1034 1034 514
Width: 922
VWidth: 1947
Flags: MW
LayerCount: 2
Fore
SplineSet
133 1400 m 25
 132 0 l 25
132 765 m 25
 540 765 l 2
 720 765 810 676 810 495 c 2
 810 337 l 2
 810 158 729 92 540 92 c 2
 472 92 l 1
 472 1400 l 1
EndSplineSet
EndChar

StartChar: Tshecyrillic
Encoding: 1035 1035 515
Width: 922
VWidth: 2334
Flags: MW
LayerCount: 2
Fore
SplineSet
770 0 m 25
 770 687 l 18
 770 825 699 887 600 887 c 10
 582 887 l 18
 506 887 362 755 362 417 c 10
 362 263 l 25
362 1308 m 25
 362 0 l 25
70 1308 m 25
 742 1308 l 25
EndSplineSet
EndChar

StartChar: Dzhecyrillic
Encoding: 1039 1039 516
Width: 922
VWidth: 2334
Flags: MW
LayerCount: 2
Fore
SplineSet
461 92 m 25
 461 -386 l 25
182 1400 m 25
 182 92 l 25
 740 92 l 17
 740 1400 l 9
EndSplineSet
EndChar

StartChar: djecyrillic
Encoding: 1106 1106 517
Width: 922
VWidth: 2334
Flags: MW
LayerCount: 2
Fore
SplineSet
30 1153 m 25
 605 1153 l 25
330.333 -228 m 1
 364.967 -271.442 418.969 -294 475 -294 c 10
 526 -294 l 18
 660 -294 740 -170 740 -28 c 10
 740 553 l 18
 740 732 700 823 520 823 c 10
 502 823 l 18
 344 823 232 597 232 463 c 10
 232 379 l 25
232 1424 m 25
 232 0 l 25
EndSplineSet
EndChar

StartChar: dzhecyrillic
Encoding: 1119 1119 519
Width: 922
VWidth: 2334
Flags: MW
LayerCount: 2
Fore
SplineSet
461 -386 m 25
 461 93 l 25
183 1023 m 25
 182 93 l 25
 740 93 l 25
 740 1023 l 25
EndSplineSet
EndChar

StartChar: ljecyrillic
Encoding: 1113 1113 520
Width: 922
VWidth: 1947
Flags: MW
LayerCount: 2
Fore
SplineSet
0 1048 m 1
 922 1048 l 1
 922 0 l 1
 0 0 l 1
 0 1048 l 1
123 -99 m 16
 165 615 l 2
 173.71 763.076 203 883 325 931 c 9
 463 931 l 25
 462 92 l 29
 600 92 l 22
 695 92 780 156 780 291 c 6
 780 337 l 6
 780 470 695 561 600 561 c 14
 462 561 l 29
EndSplineSet
EndChar

StartChar: njecyrillic
Encoding: 1114 1114 521
Width: 922
VWidth: 1947
Flags: MW
LayerCount: 2
Fore
SplineSet
142 1024 m 25
 142 0 l 25
462 1024 m 25
 462 92 l 25
 600 92 l 18
 695 92 780 156 780 291 c 2
 780 337 l 2
 780 470 695 561 600 561 c 10
 462 561 l 25
 142 561 l 25
EndSplineSet
EndChar

StartChar: apostrophereverse
Encoding: 8219 8219 523
Width: 922
VWidth: 1708
Flags: W
LayerCount: 2
Fore
SplineSet
334 1298 m 9
 549 1200 l 17
 446 1111 561 1034 630 1009 c 9
 610 935 l 17
 348 963 334 1167 334 1298 c 9
334 1298 m 0
 334 1368 388 1428 464 1428 c 0
 542 1428 593 1366 593 1298 c 0
 593 1228 538 1168 464 1168 c 0
 387 1168 334 1229 334 1298 c 0
EndSplineSet
EndChar

StartChar: arrowleft
Encoding: 8592 8592 526
Width: 922
VWidth: 1708
Flags: W
LayerCount: 2
Fore
SplineSet
922 -99 m 5
 50 -99 l 5
 50 1224 l 5
 922 1224 l 5
 922 -99 l 5
461 960 m 29
 90 600 l 29
 461 240 l 29
90 600 m 29
 872 600 l 29
EndSplineSet
EndChar

StartChar: arrowright
Encoding: 8594 8594 527
Width: 922
VWidth: 1708
Flags: MW
LayerCount: 2
Fore
SplineSet
0 -99 m 1
 0 1224 l 1
 872 1224 l 1
 872 -99 l 1
 0 -99 l 1
461 960 m 25
 832 600 l 25
 461 240 l 25
832 600 m 25
 50 600 l 25
EndSplineSet
EndChar

StartChar: lthorizform
Encoding: 9472 9472 528
Width: 922
Flags: W
LayerCount: 2
Fore
SplineSet
922 523 m 1
 -0 523 l 1
EndSplineSet
EndChar

StartChar: ltvertform
Encoding: 9474 9474 529
Width: 922
Flags: W
LayerCount: 2
Fore
SplineSet
461 1775 m 1
 461 -615 l 1
EndSplineSet
EndChar

StartChar: rightanglenw
Encoding: 9484 9484 530
Width: 922
Flags: W
LayerCount: 2
Fore
SplineSet
461 -615 m 1
 461 523 l 1
 922 523 l 1
EndSplineSet
EndChar

StartChar: rightanglene
Encoding: 9488 9488 531
Width: 922
Flags: W
LayerCount: 2
Fore
SplineSet
461 -615 m 1
 461 523 l 1
 -0 523 l 1
EndSplineSet
EndChar

StartChar: rightanglesw
Encoding: 9492 9492 532
Width: 922
Flags: W
LayerCount: 2
Fore
SplineSet
461 1775 m 5
 461 523 l 1
 922 523 l 1
EndSplineSet
EndChar

StartChar: rightanglese
Encoding: 9496 9496 533
Width: 922
Flags: W
LayerCount: 2
Fore
SplineSet
461 1775 m 5
 461 523 l 1
 -0 523 l 1
EndSplineSet
EndChar

StartChar: ltvertrightform
Encoding: 9500 9500 534
Width: 922
Flags: W
LayerCount: 2
Fore
SplineSet
461 1775 m 5
 461 -615 l 1
922 523 m 1
 461 523 l 1
EndSplineSet
EndChar

StartChar: ltvertleftform
Encoding: 9508 9508 535
Width: 922
Flags: W
LayerCount: 2
Fore
SplineSet
461 1775 m 5
 461 -615 l 1
461 523 m 1
 -0 523 l 1
EndSplineSet
EndChar

StartChar: ltdnhorizform
Encoding: 9516 9516 536
Width: 922
Flags: W
LayerCount: 2
Fore
SplineSet
461 523 m 1
 461 -615 l 1
922 523 m 1
 -0 523 l 1
EndSplineSet
EndChar

StartChar: ltuphorizform
Encoding: 9524 9524 537
Width: 922
Flags: W
LayerCount: 2
Fore
SplineSet
461 1775 m 5
 461 523 l 1
922 523 m 1
 -0 523 l 1
EndSplineSet
EndChar

StartChar: ltverthorizform
Encoding: 9532 9532 538
Width: 922
Flags: W
LayerCount: 2
Fore
SplineSet
461 1775 m 5
 461 -615 l 1
922 523 m 1
 -0 523 l 1
EndSplineSet
EndChar

StartChar: horizdblbar
Encoding: 9552 9552 539
Width: 922
Flags: W
LayerCount: 2
Fore
SplineSet
922 363 m 1
 0 363 l 1
922 683 m 1
 0 683 l 1
EndSplineSet
EndChar

StartChar: vertdblbar
Encoding: 9553 9553 540
Width: 922
Flags: W
LayerCount: 2
Fore
SplineSet
301 1775 m 5
 301 -615 l 1
621 1775 m 5
 621 -615 l 1
EndSplineSet
EndChar

StartChar: dnrtdblform
Encoding: 9554 9554 541
Width: 922
Flags: W
LayerCount: 2
Fore
SplineSet
922 363 m 1
 461 363 l 1
922 683 m 1
 461 683 l 1
 461 -615 l 1
EndSplineSet
EndChar

StartChar: dndblrtform
Encoding: 9555 9555 542
Width: 922
Flags: W
LayerCount: 2
Fore
SplineSet
301 -615 m 1
 301 523 l 1
 922 523 l 1
621 523 m 1
 621 -615 l 1
EndSplineSet
EndChar

StartChar: dbldnrtform
Encoding: 9556 9556 543
Width: 922
Flags: W
LayerCount: 2
Fore
SplineSet
922 363 m 1
 621 363 l 1
 621 -615 l 1
922 683 m 1
 301 683 l 1
 301 -615 l 1
EndSplineSet
EndChar

StartChar: dnleftdblform
Encoding: 9557 9557 544
Width: 922
Flags: W
LayerCount: 2
Fore
SplineSet
461 363 m 1
 0 363 l 1
0 683 m 1
 461 683 l 1
 461 -615 l 1
EndSplineSet
EndChar

StartChar: dndblleftform
Encoding: 9558 9558 545
Width: 922
Flags: W
LayerCount: 2
Fore
SplineSet
301 523 m 1
 301 -615 l 1
621 -615 m 1
 621 523 l 1
 -0 523 l 1
EndSplineSet
EndChar

StartChar: dbldnleftform
Encoding: 9559 9559 546
Width: 922
Flags: W
LayerCount: 2
Fore
SplineSet
0 363 m 1
 301 363 l 1
 301 -615 l 1
0 683 m 1
 621 683 l 1
 621 -615 l 1
EndSplineSet
EndChar

StartChar: uprtdblform
Encoding: 9560 9560 547
Width: 922
Flags: W
LayerCount: 2
Fore
SplineSet
922 363 m 1
 461 363 l 1
 461 1775 l 5
922 683 m 1
 461 683 l 1
EndSplineSet
EndChar

StartChar: updblrtform
Encoding: 9561 9561 548
Width: 922
Flags: W
LayerCount: 2
Fore
SplineSet
301 1775 m 5
 301 523 l 1
 922 523 l 1
621 1775 m 5
 621 523 l 1
EndSplineSet
EndChar

StartChar: dbluprtform
Encoding: 9562 9562 549
Width: 922
Flags: W
LayerCount: 2
Fore
SplineSet
922 363 m 1
 301 363 l 1
 301 1775 l 5
922 683 m 1
 621 683 l 1
 621 1775 l 5
EndSplineSet
EndChar

StartChar: upleftdblform
Encoding: 9563 9563 550
Width: 922
Flags: W
LayerCount: 2
Fore
SplineSet
0 363 m 1
 461 363 l 1
 461 1775 l 5
461 683 m 1
 0 683 l 1
EndSplineSet
EndChar

StartChar: updblleftform
Encoding: 9564 9564 551
Width: 922
Flags: W
LayerCount: 2
Fore
SplineSet
301 1775 m 5
 301 523 l 1
621 1775 m 5
 621 523 l 1
 -0 523 l 1
EndSplineSet
EndChar

StartChar: dblupleftform
Encoding: 9565 9565 552
Width: 922
Flags: W
LayerCount: 2
Fore
SplineSet
0 363 m 1
 621 363 l 1
 621 1775 l 5
0 683 m 1
 301 683 l 1
 301 1775 l 5
EndSplineSet
EndChar

StartChar: vertrtdblform
Encoding: 9566 9566 553
Width: 922
Flags: W
LayerCount: 2
Fore
SplineSet
922 363 m 1
 461 363 l 1
922 683 m 1
 461 683 l 1
461 1775 m 5
 461 -615 l 1
EndSplineSet
EndChar

StartChar: vertdblrtform
Encoding: 9567 9567 554
Width: 922
Flags: W
LayerCount: 2
Fore
SplineSet
301 1775 m 1
 301 -615 l 1
621 1775 m 1
 621 -615 l 1
922 523 m 1
 621 523 l 1
EndSplineSet
EndChar

StartChar: dblvertrtform
Encoding: 9568 9568 555
Width: 922
Flags: W
LayerCount: 2
Fore
SplineSet
922 363 m 1
 621 363 l 1
 621 -615 l 1
922 683 m 1
 621 683 l 1
 621 1775 l 5
301 1775 m 5
 301 -615 l 1
EndSplineSet
EndChar

StartChar: vertleftdblform
Encoding: 9569 9569 556
Width: 922
Flags: W
LayerCount: 2
Fore
SplineSet
461 363 m 1
 0 363 l 1
461 683 m 1
 0 683 l 1
461 1775 m 5
 461 -615 l 1
EndSplineSet
EndChar

StartChar: vertdblleftform
Encoding: 9570 9570 557
Width: 922
Flags: W
LayerCount: 2
Fore
SplineSet
301 1775 m 5
 301 -615 l 1
621 1775 m 5
 621 -615 l 1
301 523 m 1
 -0 523 l 1
EndSplineSet
EndChar

StartChar: dblvertleftform
Encoding: 9571 9571 558
Width: 922
Flags: W
LayerCount: 2
Fore
SplineSet
0 363 m 1
 301 363 l 1
 301 -615 l 1
0 683 m 1
 301 683 l 1
 301 1775 l 5
621 1775 m 5
 621 -615 l 1
EndSplineSet
EndChar

StartChar: dnhorizdblform
Encoding: 9572 9572 559
Width: 922
Flags: W
LayerCount: 2
Fore
SplineSet
922 363 m 1
 0 363 l 1
922 683 m 1
 0 683 l 1
461 363 m 1
 461 -615 l 1
EndSplineSet
EndChar

StartChar: dndblhorizform
Encoding: 9573 9573 560
Width: 922
Flags: W
LayerCount: 2
Fore
SplineSet
301 523 m 1
 301 -615 l 1
621 523 m 1
 621 -615 l 1
922 523 m 1
 0 523 l 1
EndSplineSet
EndChar

StartChar: dbldnhorizform
Encoding: 9574 9574 561
Width: 922
Flags: W
LayerCount: 2
Fore
SplineSet
922 363 m 1
 621 363 l 1
 621 -615 l 1
0 363 m 1
 301 363 l 1
 301 -615 l 1
922 683 m 1
 0 683 l 1
EndSplineSet
EndChar

StartChar: uphorizdblform
Encoding: 9575 9575 562
Width: 922
Flags: W
LayerCount: 2
Fore
SplineSet
922 363 m 1
 0 363 l 1
922 683 m 1
 0 683 l 1
461 1775 m 5
 461 683 l 1
EndSplineSet
EndChar

StartChar: updblhorizform
Encoding: 9576 9576 563
Width: 922
Flags: W
LayerCount: 2
Fore
SplineSet
301 1775 m 5
 301 523 l 1
621 1775 m 5
 621 523 l 1
922 523 m 1
 -0 523 l 1
EndSplineSet
EndChar

StartChar: dbluphorizform
Encoding: 9577 9577 564
Width: 922
Flags: W
LayerCount: 2
Fore
SplineSet
922 363 m 1
 0 363 l 1
922 683 m 1
 621 683 l 1
 621 1775 l 5
0 683 m 1
 301 683 l 1
 301 1775 l 5
EndSplineSet
EndChar

StartChar: verthorizdblform
Encoding: 9578 9578 565
Width: 922
Flags: W
LayerCount: 2
Fore
SplineSet
922 363 m 1
 0 363 l 1
922 715 m 1
 0 715 l 1
461 1775 m 1
 461 715 l 1
461 363 m 1
 461 -615 l 1
EndSplineSet
EndChar

StartChar: vertdblhorizform
Encoding: 9579 9579 566
Width: 922
Flags: W
LayerCount: 2
Fore
SplineSet
301 1775 m 1
 301 -615 l 1
621 1775 m 1
 621 -615 l 1
922 523 m 1
 621 523 l 1
301 523 m 1
 -0 523 l 1
EndSplineSet
EndChar

StartChar: dblverthorizform
Encoding: 9580 9580 567
Width: 922
Flags: W
LayerCount: 2
Fore
SplineSet
922 363 m 1
 621 363 l 1
 621 -615 l 1
0 363 m 1
 301 363 l 1
 301 -615 l 1
922 683 m 1
 621 683 l 1
 621 1775 l 5
0 683 m 1
 301 683 l 1
 301 1775 l 5
EndSplineSet
EndChar

StartChar: upblock
Encoding: 9600 9600 568
Width: 922
Flags: W
VStem: -0 922<523 1775>
LayerCount: 2
Fore
SplineSet
922 523 m 1
 -0 523 l 1
 0 1775 l 5
 922 1775 l 5
 922 523 l 1
EndSplineSet
EndChar

StartChar: dnblock
Encoding: 9604 9604 569
Width: 922
Flags: W
HStem: -615 1138<0 922>
VStem: -0 922<-615 523>
LayerCount: 2
Fore
SplineSet
922 -615 m 1
 -0 -615 l 1
 -0 523 l 1
 922 523 l 1
 922 -615 l 1
EndSplineSet
Validated: 3073
EndChar

StartChar: block
Encoding: 9608 9608 570
Width: 922
Flags: W
VStem: -0 922<-615 1775>
LayerCount: 2
Fore
SplineSet
-0 -615 m 1
 0 1775 l 5
 922 1775 l 5
 922 -615 l 1
 -0 -615 l 1
EndSplineSet
EndChar

StartChar: lfblock
Encoding: 9612 9612 571
Width: 922
Flags: W
VStem: -0 461<-615 1775>
LayerCount: 2
Fore
SplineSet
-0 -615 m 1
 0 1775 l 5
 461 1775 l 5
 461 -615 l 1
 -0 -615 l 1
EndSplineSet
EndChar

StartChar: rtblock
Encoding: 9616 9616 572
Width: 922
Flags: W
VStem: 461 461<-615 1775>
LayerCount: 2
Fore
SplineSet
461 -615 m 1
 461 1775 l 5
 922 1775 l 5
 922 -615 l 1
 461 -615 l 1
EndSplineSet
EndChar

StartChar: shadelight
Encoding: 9617 9617 573
Width: 922
Flags: W
HStem: -514 100<153 230 461 540 769 846> -315 100<0 77 307 385 616 693> -115 99<153 230 461 540 769 846> 83 100<0 77 307 385 616 693> 283 99<153 230 461 540 769 846> 482 99<0 77 307 385 616 693> 681 100<153 230 461 540 769 846> 881 99<0 77 307 385 616 693> 1080 99<153 230 461 540 769 846> 1278 100<0 77 307 385 616 693> 1477 100<153 230 461 540 769 846> 1677 98<0 77 307 385 616 693>
VStem: 0 77<-315 -215 83 183 482 581 881 980 1278 1378 1677 1775> 153 77<-514 -414 -115 -16 283 382 681 781 1080 1179 1477 1577> 307 78<-315 -215 83 183 482 581 881 980 1278 1378 1677 1775> 461 79<-514 -414 -115 -16 283 382 681 781 1080 1179 1477 1577> 616 77<-315 -215 83 183 482 581 881 980 1278 1378 1677 1775> 769 77<-514 -414 -115 -16 283 382 681 781 1080 1179 1477 1577>
LayerCount: 2
Fore
SplineSet
0 1378 m 1
 77 1378 l 1
 77 1278 l 1
 0 1278 l 1
 0 1378 l 1
307 1378 m 1
 385 1378 l 1
 385 1278 l 1
 307 1278 l 1
 307 1378 l 1
616 1378 m 1
 693 1378 l 1
 693 1278 l 1
 616 1278 l 1
 616 1378 l 1
153 1179 m 1
 230 1179 l 1
 230 1080 l 1
 153 1080 l 1
 153 1179 l 1
461 1179 m 1
 540 1179 l 1
 540 1080 l 1
 461 1080 l 1
 461 1179 l 1
769 1179 m 1
 846 1179 l 1
 846 1080 l 1
 769 1080 l 1
 769 1179 l 1
616 980 m 1
 693 980 l 1
 693 881 l 1
 616 881 l 1
 616 980 l 1
307 980 m 1
 385 980 l 1
 385 881 l 1
 307 881 l 1
 307 980 l 1
0 980 m 1
 77 980 l 1
 77 881 l 1
 0 881 l 1
 0 980 l 1
769 781 m 1
 846 781 l 1
 846 681 l 1
 769 681 l 1
 769 781 l 1
461 781 m 1
 540 781 l 1
 540 681 l 1
 461 681 l 1
 461 781 l 1
153 781 m 1
 230 781 l 1
 230 681 l 1
 153 681 l 1
 153 781 l 1
0 581 m 1
 77 581 l 1
 77 482 l 1
 0 482 l 1
 0 581 l 1
307 581 m 1
 385 581 l 1
 385 482 l 1
 307 482 l 1
 307 581 l 1
616 581 m 1
 693 581 l 1
 693 482 l 1
 616 482 l 1
 616 581 l 1
769 382 m 1
 846 382 l 1
 846 283 l 1
 769 283 l 1
 769 382 l 1
461 382 m 1
 540 382 l 1
 540 283 l 1
 461 283 l 1
 461 382 l 1
153 382 m 1
 230 382 l 1
 230 283 l 1
 153 283 l 1
 153 382 l 1
0 183 m 1
 77 183 l 1
 77 83 l 1
 0 83 l 1
 0 183 l 1
307 183 m 1
 385 183 l 1
 385 83 l 1
 307 83 l 1
 307 183 l 1
616 183 m 1
 693 183 l 1
 693 83 l 1
 616 83 l 1
 616 183 l 1
153 -16 m 1
 230 -16 l 1
 230 -115 l 1
 153 -115 l 1
 153 -16 l 1
461 -16 m 1
 540 -16 l 1
 540 -115 l 1
 461 -115 l 1
 461 -16 l 1
769 -16 m 1
 846 -16 l 1
 846 -115 l 1
 769 -115 l 1
 769 -16 l 1
616 -215 m 1
 693 -215 l 1
 693 -315 l 1
 616 -315 l 1
 616 -215 l 1
307 -215 m 1
 385 -215 l 1
 385 -315 l 1
 307 -315 l 1
 307 -215 l 1
0 -215 m 1
 77 -215 l 1
 77 -315 l 1
 0 -315 l 1
 0 -215 l 1
153 -414 m 1
 230 -414 l 1
 230 -514 l 1
 153 -514 l 1
 153 -414 l 1
461 -414 m 1
 540 -414 l 1
 540 -514 l 1
 461 -514 l 1
 461 -414 l 1
769 -414 m 1
 846 -414 l 1
 846 -514 l 1
 769 -514 l 1
 769 -414 l 1
153 1577 m 1
 230 1577 l 1
 230 1477 l 1
 153 1477 l 1
 153 1577 l 1
461 1577 m 1
 540 1577 l 1
 540 1477 l 1
 461 1477 l 1
 461 1577 l 1
769 1577 m 1
 846 1577 l 1
 846 1477 l 1
 769 1477 l 1
 769 1577 l 1
0 1775 m 1
 77 1775 l 1
 77 1677 l 1
 0 1677 l 1
 0 1775 l 1
307 1775 m 1
 385 1775 l 1
 385 1677 l 1
 307 1677 l 1
 307 1775 l 1
616 1775 m 1
 693 1775 l 1
 693 1677 l 1
 616 1677 l 1
 616 1775 l 1
EndSplineSet
EndChar

StartChar: shademedium
Encoding: 9618 9618 574
Width: 922
Flags: W
HStem: -514 100<0 77 153 230 307 384 461 539 616 692 769 846> -315 100<77 153 230 307 384 461 539 616 692 769 846 922> -115 99<0 77 153 230 307 384 461 539 616 692 769 846> 83 100<77 153 230 307 384 461 539 616 692 769 846 922> 283 99<0 77 153 230 307 384 461 539 616 692 769 846> 482 99<77 153 230 307 384 461 539 616 692 769 846 922> 681 100<0 77 153 230 307 384 461 539 616 692 769 846> 881 99<77 153 230 307 384 461 539 616 692 769 846 922> 1080 99<0 77 153 230 307 384 461 539 616 692 769 846> 1278 100<77 153 230 307 384 461 539 616 692 769 846 922> 1477 100<0 77 153 230 307 384 461 539 616 692 769 846> 1677 98<77 153 230 307 384 461 539 616 692 769 846 922>
VStem: 0 77<-514 -414 -115 -16 283 382 681 781 1080 1179 1477 1577> 77 76<-315 -215 83 183 482 581 881 980 1278 1378 1677 1775> 153 77<-514 -414 -115 -16 283 382 681 781 1080 1179 1477 1577> 230 77<-315 -215 83 183 482 581 881 980 1278 1378 1677 1775> 307 77<-514 -414 -115 -16 283 382 681 781 1080 1179 1477 1577> 384 77<-315 -215 83 183 482 581 881 980 1278 1378 1677 1775> 461 78<-514 -414 -115 -16 283 382 681 781 1080 1179 1477 1577> 539 77<-315 -215 83 183 482 581 881 980 1278 1378 1677 1775> 616 76<-514 -414 -115 -16 283 382 681 781 1080 1179 1477 1577> 692 77<-315 -215 83 183 482 581 881 980 1278 1378 1677 1775> 769 77<-514 -414 -115 -16 283 382 681 781 1080 1179 1477 1577> 846 76<-315 -215 83 183 482 581 881 980 1278 1378 1677 1775>
LayerCount: 2
Fore
SplineSet
77 1378 m 1
 153 1378 l 1
 153 1278 l 1
 77 1278 l 1
 77 1378 l 1
230 1378 m 1
 307 1378 l 1
 307 1278 l 1
 230 1278 l 1
 230 1378 l 1
384 1378 m 1
 461 1378 l 1
 461 1278 l 1
 384 1278 l 1
 384 1378 l 1
539 1378 m 1
 616 1378 l 1
 616 1278 l 1
 539 1278 l 1
 539 1378 l 1
692 1378 m 1
 769 1378 l 1
 769 1278 l 1
 692 1278 l 1
 692 1378 l 1
846 1378 m 1
 922 1378 l 1
 922 1278 l 1
 846 1278 l 1
 846 1378 l 1
0 1179 m 1
 77 1179 l 1
 77 1080 l 1
 0 1080 l 1
 0 1179 l 1
153 1179 m 1
 230 1179 l 1
 230 1080 l 1
 153 1080 l 1
 153 1179 l 1
307 1179 m 1
 384 1179 l 1
 384 1080 l 1
 307 1080 l 1
 307 1179 l 1
461 1179 m 1
 539 1179 l 1
 539 1080 l 1
 461 1080 l 1
 461 1179 l 1
616 1179 m 1
 692 1179 l 1
 692 1080 l 1
 616 1080 l 1
 616 1179 l 1
769 1179 m 1
 846 1179 l 1
 846 1080 l 1
 769 1080 l 1
 769 1179 l 1
77 980 m 1
 153 980 l 1
 153 881 l 1
 77 881 l 1
 77 980 l 1
230 980 m 1
 307 980 l 1
 307 881 l 1
 230 881 l 1
 230 980 l 1
384 980 m 1
 461 980 l 1
 461 881 l 1
 384 881 l 1
 384 980 l 1
539 980 m 1
 616 980 l 1
 616 881 l 1
 539 881 l 1
 539 980 l 1
692 980 m 1
 769 980 l 1
 769 881 l 1
 692 881 l 1
 692 980 l 1
846 980 m 1
 922 980 l 1
 922 881 l 1
 846 881 l 1
 846 980 l 1
0 781 m 1
 77 781 l 1
 77 681 l 1
 0 681 l 1
 0 781 l 1
153 781 m 1
 230 781 l 1
 230 681 l 1
 153 681 l 1
 153 781 l 1
307 781 m 1
 384 781 l 1
 384 681 l 1
 307 681 l 1
 307 781 l 1
461 781 m 1
 539 781 l 1
 539 681 l 1
 461 681 l 1
 461 781 l 1
616 781 m 1
 692 781 l 1
 692 681 l 1
 616 681 l 1
 616 781 l 1
769 781 m 1
 846 781 l 1
 846 681 l 1
 769 681 l 1
 769 781 l 1
77 581 m 1
 153 581 l 1
 153 482 l 1
 77 482 l 1
 77 581 l 1
230 581 m 1
 307 581 l 1
 307 482 l 1
 230 482 l 1
 230 581 l 1
384 581 m 1
 461 581 l 1
 461 482 l 1
 384 482 l 1
 384 581 l 1
539 581 m 1
 616 581 l 1
 616 482 l 1
 539 482 l 1
 539 581 l 1
692 581 m 1
 769 581 l 1
 769 482 l 1
 692 482 l 1
 692 581 l 1
846 581 m 1
 922 581 l 1
 922 482 l 1
 846 482 l 1
 846 581 l 1
0 382 m 1
 77 382 l 1
 77 283 l 1
 0 283 l 1
 0 382 l 1
307 382 m 1
 384 382 l 1
 384 283 l 1
 307 283 l 1
 307 382 l 1
461 382 m 1
 539 382 l 1
 539 283 l 1
 461 283 l 1
 461 382 l 1
616 382 m 1
 692 382 l 1
 692 283 l 1
 616 283 l 1
 616 382 l 1
769 382 m 1
 846 382 l 1
 846 283 l 1
 769 283 l 1
 769 382 l 1
153 382 m 1
 230 382 l 1
 230 283 l 1
 153 283 l 1
 153 382 l 1
846 183 m 1
 922 183 l 1
 922 83 l 1
 846 83 l 1
 846 183 l 1
692 183 m 1
 769 183 l 1
 769 83 l 1
 692 83 l 1
 692 183 l 1
539 183 m 1
 616 183 l 1
 616 83 l 1
 539 83 l 1
 539 183 l 1
384 183 m 1
 461 183 l 1
 461 83 l 1
 384 83 l 1
 384 183 l 1
230 183 m 1
 307 183 l 1
 307 83 l 1
 230 83 l 1
 230 183 l 1
77 183 m 1
 153 183 l 1
 153 83 l 1
 77 83 l 1
 77 183 l 1
0 -16 m 1
 77 -16 l 1
 77 -115 l 1
 0 -115 l 1
 0 -16 l 1
153 -16 m 1
 230 -16 l 1
 230 -115 l 1
 153 -115 l 1
 153 -16 l 1
307 -16 m 1
 384 -16 l 1
 384 -115 l 1
 307 -115 l 1
 307 -16 l 1
461 -16 m 1
 539 -16 l 1
 539 -115 l 1
 461 -115 l 1
 461 -16 l 1
616 -16 m 1
 692 -16 l 1
 692 -115 l 1
 616 -115 l 1
 616 -16 l 1
769 -16 m 1
 846 -16 l 1
 846 -115 l 1
 769 -115 l 1
 769 -16 l 1
846 -215 m 1
 922 -215 l 1
 922 -315 l 1
 846 -315 l 1
 846 -215 l 1
692 -215 m 1
 769 -215 l 1
 769 -315 l 1
 692 -315 l 1
 692 -215 l 1
539 -215 m 1
 616 -215 l 1
 616 -315 l 1
 539 -315 l 1
 539 -215 l 1
384 -215 m 1
 461 -215 l 1
 461 -315 l 1
 384 -315 l 1
 384 -215 l 1
230 -215 m 1
 307 -215 l 1
 307 -315 l 1
 230 -315 l 1
 230 -215 l 1
77 -215 m 1
 153 -215 l 1
 153 -315 l 1
 77 -315 l 1
 77 -215 l 1
0 -414 m 1
 77 -414 l 1
 77 -514 l 1
 0 -514 l 1
 0 -414 l 1
153 -414 m 1
 230 -414 l 1
 230 -514 l 1
 153 -514 l 1
 153 -414 l 1
307 -414 m 1
 384 -414 l 1
 384 -514 l 1
 307 -514 l 1
 307 -414 l 1
461 -414 m 1
 539 -414 l 1
 539 -514 l 1
 461 -514 l 1
 461 -414 l 1
616 -414 m 1
 692 -414 l 1
 692 -514 l 1
 616 -514 l 1
 616 -414 l 1
769 -414 m 1
 846 -414 l 1
 846 -514 l 1
 769 -514 l 1
 769 -414 l 1
0 1577 m 1
 77 1577 l 1
 77 1477 l 1
 0 1477 l 1
 0 1577 l 1
153 1577 m 1
 230 1577 l 1
 230 1477 l 1
 153 1477 l 1
 153 1577 l 1
307 1577 m 1
 384 1577 l 1
 384 1477 l 1
 307 1477 l 1
 307 1577 l 1
461 1577 m 1
 539 1577 l 1
 539 1477 l 1
 461 1477 l 1
 461 1577 l 1
616 1577 m 1
 692 1577 l 1
 692 1477 l 1
 616 1477 l 1
 616 1577 l 1
769 1577 m 1
 846 1577 l 1
 846 1477 l 1
 769 1477 l 1
 769 1577 l 1
77 1775 m 1
 153 1775 l 1
 153 1677 l 1
 77 1677 l 1
 77 1775 l 1
230 1775 m 1
 307 1775 l 1
 307 1677 l 1
 230 1677 l 1
 230 1775 l 1
384 1775 m 1
 461 1775 l 1
 461 1677 l 1
 384 1677 l 1
 384 1775 l 1
539 1775 m 1
 616 1775 l 1
 616 1677 l 1
 539 1677 l 1
 539 1775 l 1
692 1775 m 1
 769 1775 l 1
 769 1677 l 1
 692 1677 l 1
 692 1775 l 1
846 1775 m 1
 922 1775 l 1
 922 1677 l 1
 846 1677 l 1
 846 1775 l 1
EndSplineSet
EndChar

StartChar: shadedark
Encoding: 9619 9619 575
Width: 922
Flags: W
HStem: -615 300<0 77 153 230 307 384 461 539 616 692 769 846> -615 101<77 153 230 307 384 461 539 616 692 769 846 922> -414 299<77 153 230 307 384 461 539 616 692 769 846 922> -215 299<0 77 153 230 307 384 461 539 616 692 769 846> -16 299<77 153 230 307 384 461 539 616 692 769 846 922> 183 299<0 77 153 230 307 384 461 539 616 692 769 846> 382 299<77 153 230 307 384 461 539 616 692 769 846 922> 581 299<0 77 153 230 307 384 461 539 616 692 769 846> 781 299<77 153 230 307 384 461 539 616 692 769 846 922> 980 299<0 77 153 230 307 384 461 539 616 692 769 846> 1179 299<77 153 230 307 384 461 539 616 692 769 846 922> 1378 299<0 77 153 230 307 384 461 539 616 692 769 846> 1577 198<77 153 230 307 384 461 539 616 692 769 846 922>
VStem: 0 77<-514 -414 -115 -16 283 382 681 781 1080 1179 1478 1577> 77 76<-315 -215 84 183 482 581 881 980 1279 1378 1677 1775> 153 77<-514 -414 -115 -16 283 382 681 781 1080 1179 1478 1577> 230 77<-315 -215 84 183 482 581 880 980 1279 1378 1677 1775> 307 77<-514 -414 -115 -16 283 382 681 781 1080 1179 1478 1577> 384 77<-315 -215 84 183 482 581 880 980 1279 1378 1677 1775> 461 78<-514 -414 -115 -16 283 382 681 781 1080 1179 1478 1577> 539 77<-315 -215 84 183 482 581 880 980 1279 1378 1677 1775> 616 76<-514 -414 -115 -16 283 382 681 781 1080 1179 1478 1577> 692 77<-315 -215 84 183 482 581 880 980 1279 1378 1677 1775> 769 77<-514 -414 -115 -16 283 382 681 781 1080 1179 1478 1577> 846 76<-315 -215 84 183 482 581 880 980 1279 1378 1677 1775>
LayerCount: 2
Fore
SplineSet
922 1577 m 1x000fff80
 846 1577 l 1
 846 1478 l 1
 922 1478 l 1
 922 1179 l 1
 846 1179 l 1
 846 1080 l 1
 922 1080 l 1
 922 781 l 1
 846 781 l 1
 846 681 l 1
 922 681 l 1
 922 382 l 1
 846 382 l 1
 846 283 l 1
 922 283 l 1
 922 -16 l 1
 846 -16 l 1
 846 -115 l 1
 922 -115 l 1
 922 -414 l 1
 846 -414 l 1
 846 -514 l 1
 922 -514 l 1
 922 -615 l 1x6aafff80
 0 -615 l 1
 0 -315 l 1
 77 -315 l 1
 77 -215 l 1
 0 -215 l 1
 0 83 l 1
 77 83 l 1
 77 183 l 1
 0 183 l 1
 0 482 l 1
 77 482 l 1
 77 581 l 1
 0 581 l 1
 0 881 l 1
 77 881 l 1
 77 980 l 1
 0 980 l 1
 0 1279 l 1
 77 1279 l 1
 77 1378 l 1
 0 1378 l 1
 0 1677 l 1
 77 1677 l 1x9557ff80
 77 1775 l 1
 153 1775 l 1x000fff80
 153 1677 l 1
 230 1677 l 1x0017ff80
 230 1775 l 1
 307 1775 l 1x000fff80
 307 1677 l 1
 384 1677 l 1x0017ff80
 384 1775 l 1
 461 1775 l 1x000fff80
 461 1677 l 1
 539 1677 l 1x0017ff80
 539 1775 l 1
 616 1775 l 1x000fff80
 616 1677 l 1
 692 1677 l 1x0017ff80
 692 1775 l 1
 769 1775 l 1x000fff80
 769 1677 l 1
 846 1677 l 1x0017ff80
 846 1775 l 1
 922 1775 l 1
 922 1577 l 1x000fff80
77 1179 m 1
 77 1080 l 1
 153 1080 l 1
 153 1179 l 1
 77 1179 l 1
230 1179 m 1
 230 1080 l 1
 307 1080 l 1
 307 1179 l 1
 230 1179 l 1
384 1179 m 1
 384 1080 l 1
 461 1080 l 1
 461 1179 l 1
 384 1179 l 1
539 1179 m 1
 539 1080 l 1
 616 1080 l 1
 616 1179 l 1
 539 1179 l 1
692 1179 m 1
 692 1080 l 1
 769 1080 l 1
 769 1179 l 1
 692 1179 l 1
846 980 m 1x0147ff80
 769 980 l 1
 769 880 l 1
 846 880 l 1
 846 980 l 1x0147ff80
692 980 m 1
 616 980 l 1
 616 880 l 1
 692 880 l 1
 692 980 l 1
539 980 m 1
 461 980 l 1
 461 880 l 1
 539 880 l 1
 539 980 l 1
384 980 m 1
 307 980 l 1
 307 880 l 1
 384 880 l 1
 384 980 l 1
230 980 m 1
 153 980 l 1
 153 880 l 1
 230 880 l 1
 230 980 l 1
77 781 m 1x0287ff80
 77 681 l 1
 153 681 l 1
 153 781 l 1
 77 781 l 1x0287ff80
230 781 m 1
 230 681 l 1
 307 681 l 1
 307 781 l 1
 230 781 l 1
384 781 m 1
 384 681 l 1
 461 681 l 1
 461 781 l 1
 384 781 l 1
539 781 m 1
 539 681 l 1
 616 681 l 1
 616 781 l 1
 539 781 l 1
692 781 m 1
 692 681 l 1
 769 681 l 1
 769 781 l 1
 692 781 l 1
230 581 m 1x0507ff80
 153 581 l 1
 153 482 l 1
 230 482 l 1
 230 581 l 1x0507ff80
307 581 m 1
 307 482 l 1
 384 482 l 1
 384 581 l 1
 307 581 l 1
461 581 m 1
 461 482 l 1
 539 482 l 1
 539 581 l 1
 461 581 l 1
616 581 m 1
 616 482 l 1
 692 482 l 1
 692 581 l 1
 616 581 l 1
769 581 m 1
 769 482 l 1
 846 482 l 1
 846 581 l 1
 769 581 l 1
77 382 m 1x0a07ff80
 77 283 l 1
 153 283 l 1
 153 382 l 1
 77 382 l 1x0a07ff80
384 382 m 1
 384 283 l 1
 461 283 l 1
 461 382 l 1
 384 382 l 1
307 283 m 1
 307 382 l 1
 230 382 l 1
 230 283 l 1
 307 283 l 1
539 382 m 1
 539 283 l 1
 616 283 l 1
 616 382 l 1
 539 382 l 1
692 382 m 1
 692 283 l 1
 769 283 l 1
 769 382 l 1
 692 382 l 1
846 84 m 1x1407ff80
 846 183 l 1
 769 183 l 1
 769 84 l 1
 846 84 l 1x1407ff80
692 84 m 1
 692 183 l 1
 616 183 l 1
 616 84 l 1
 692 84 l 1
539 84 m 1
 539 183 l 1
 461 183 l 1
 461 84 l 1
 539 84 l 1
384 84 m 1
 384 183 l 1
 307 183 l 1
 307 84 l 1
 384 84 l 1
230 84 m 1
 230 183 l 1
 153 183 l 1
 153 84 l 1
 230 84 l 1
77 -16 m 1x2807ff80
 77 -115 l 1
 153 -115 l 1
 153 -16 l 1
 77 -16 l 1x2807ff80
230 -16 m 1
 230 -115 l 1
 307 -115 l 1
 307 -16 l 1
 230 -16 l 1
384 -16 m 1
 384 -115 l 1
 461 -115 l 1
 461 -16 l 1
 384 -16 l 1
539 -16 m 1
 539 -115 l 1
 616 -115 l 1
 616 -16 l 1
 539 -16 l 1
692 -16 m 1
 692 -115 l 1
 769 -115 l 1
 769 -16 l 1
 692 -16 l 1
846 -315 m 1x9007ff80
 846 -215 l 1
 769 -215 l 1
 769 -315 l 1
 846 -315 l 1x9007ff80
692 -315 m 1
 692 -215 l 1
 616 -215 l 1
 616 -315 l 1
 692 -315 l 1
539 -315 m 1
 539 -215 l 1
 461 -215 l 1
 461 -315 l 1
 539 -315 l 1
384 -315 m 1
 384 -215 l 1
 307 -215 l 1
 307 -315 l 1
 384 -315 l 1
230 -315 m 1
 230 -215 l 1
 153 -215 l 1
 153 -315 l 1
 230 -315 l 1
77 -414 m 1x6007ff80
 77 -514 l 1
 153 -514 l 1
 153 -414 l 1
 77 -414 l 1x6007ff80
230 -414 m 1
 230 -514 l 1
 307 -514 l 1
 307 -414 l 1
 230 -414 l 1
384 -414 m 1
 384 -514 l 1
 461 -514 l 1
 461 -414 l 1
 384 -414 l 1
539 -414 m 1
 539 -514 l 1
 616 -514 l 1
 616 -414 l 1
 539 -414 l 1
692 -414 m 1
 692 -514 l 1
 769 -514 l 1
 769 -414 l 1
 692 -414 l 1
846 1378 m 1x0057ff80
 769 1378 l 1
 769 1279 l 1
 846 1279 l 1
 846 1378 l 1x0057ff80
692 1378 m 1
 616 1378 l 1
 616 1279 l 1
 692 1279 l 1
 692 1378 l 1
539 1378 m 1
 461 1378 l 1
 461 1279 l 1
 539 1279 l 1
 539 1378 l 1
384 1378 m 1
 307 1378 l 1
 307 1279 l 1
 384 1279 l 1
 384 1378 l 1
230 1378 m 1
 153 1378 l 1
 153 1279 l 1
 230 1279 l 1
 230 1378 l 1
769 1577 m 1x002fff80
 692 1577 l 1
 692 1478 l 1
 769 1478 l 1
 769 1577 l 1x002fff80
616 1577 m 1
 539 1577 l 1
 539 1478 l 1
 616 1478 l 1
 616 1577 l 1
461 1577 m 1
 384 1577 l 1
 384 1478 l 1
 461 1478 l 1
 461 1577 l 1
307 1577 m 1
 230 1577 l 1
 230 1478 l 1
 307 1478 l 1
 307 1577 l 1
153 1577 m 1
 77 1577 l 1
 77 1478 l 1
 153 1478 l 1
 153 1577 l 1
EndSplineSet
EndChar

StartChar: blacksquare
Encoding: 9632 9632 576
Width: 922
Flags: W
HStem: 116.375 992.245<0 922>
VStem: 0 922<116.375 1108.62>
LayerCount: 2
Fore
SplineSet
0 1109 m 5
 922 1109 l 5
 922 116 l 5
 0 116 l 5
 0 1109 l 5
EndSplineSet
EndChar

StartChar: whitesquare
Encoding: 9633 9633 577
Width: 922
Flags: W
HStem: 116 192.35<187.15 733.85> 916.65 192.35<187.15 733.85>
VStem: 0 187.15<308.35 916.65> 733.85 188.15<308.35 916.65>
LayerCount: 2
Fore
SplineSet
0 1109 m 1
 922 1109 l 1
 922 116 l 1
 0 116 l 1
 0 1109 l 1
187 917 m 1
 187 308 l 1
 734 308 l 1
 734 917 l 1
 187 917 l 1
EndSplineSet
EndChar

StartChar: blacksmallsquare
Encoding: 9642 9642 578
Width: 922
Flags: W
HStem: 400.365 472.271<224.175 696.825>
VStem: 224.175 472.65<400.365 872.635>
LayerCount: 2
Fore
SplineSet
697 400 m 5
 224 400 l 5
 224 873 l 5
 697 873 l 5
 697 400 l 5
EndSplineSet
EndChar

StartChar: whitesmallsquare
Encoding: 9643 9643 579
Width: 922
Flags: W
HStem: 400.365 113.926<341.925 579.075> 758.709 113.926<341.925 579.075>
VStem: 224.175 117.75<514.291 758.709> 579.075 117.75<514.291 758.709>
LayerCount: 2
Fore
SplineSet
697 400 m 1
 224 400 l 1
 224 873 l 1
 697 873 l 1
 697 400 l 1
579 514 m 1
 579 759 l 1
 342 759 l 1
 342 514 l 1
 579 514 l 1
EndSplineSet
EndChar

StartChar: blackrectangle
Encoding: 9644 9644 580
Width: 922
Flags: W
HStem: 395 231<0 922>
LayerCount: 2
Fore
SplineSet
0 626 m 1
 922 626 l 5
 922 395 l 5
 0 395 l 1
 0 626 l 1
EndSplineSet
Validated: 3073
EndChar

StartChar: triagup
Encoding: 9650 9650 581
Width: 922
Flags: W
LayerCount: 2
Fore
SplineSet
0 114 m 5
 460 914 l 5
 922 114 l 5
 0 114 l 5
EndSplineSet
EndChar

StartChar: triagrt
Encoding: 9658 9658 582
Width: 922
Flags: W
LayerCount: 2
Fore
SplineSet
63 -63 m 1
 61 860 l 1
 861 398 l 1
 63 -63 l 1
EndSplineSet
EndChar

StartChar: triagdn
Encoding: 9660 9660 583
Width: 922
Flags: W
LayerCount: 2
Fore
SplineSet
922 914 m 5
 462 114 l 5
 0 914 l 5
 922 914 l 5
EndSplineSet
EndChar

StartChar: triaglf
Encoding: 9668 9668 584
Width: 922
Flags: W
LayerCount: 2
Fore
SplineSet
62 398 m 5
 860 861 l 5
 860 -63 l 5
 62 398 l 5
EndSplineSet
EndChar

StartChar: lozenge
Encoding: 9674 9674 585
Width: 922
Flags: W
DStem2: 261 710 89 709 0.489251 -0.872143<0 400.76> 89 709 261 710 0.486669 0.873586<84.5807 485.336> 501 1287 458 1059 0.499203 -0.866485<176.093 577.838> 458 361 501 135 0.501808 0.864979<0 401.737>
LayerCount: 2
Fore
SplineSet
501 1287 m 1
 834 709 l 1
 501 135 l 1
 411 135 l 1
 89 709 l 1
 411 1287 l 1
 501 1287 l 1
458 1059 m 1
 261 710 l 1
 458 361 l 1
 657 710 l 1
 458 1059 l 1
EndSplineSet
EndChar

StartChar: whitecircle
Encoding: 9675 9675 586
Width: 922
Flags: W
HStem: 221 150<334.35 586.595> 784 150<333.91 587.132>
VStem: 104 150<452.439 703.668> 668 150<451.815 701.975>
LayerCount: 2
Fore
SplineSet
461 934 m 0
 663 934 818 770 818 578 c 0
 818 377 658 221 461 221 c 0
 258 221 104 381 104 578 c 0
 104 763 251 934 461 934 c 0
461 784 m 0
 341 784 254 688 254 578 c 0
 254 453 355 371 461 371 c 256
 577 371 668 463 668 578 c 0
 668 683 584 784 461 784 c 0
EndSplineSet
EndChar

StartChar: blackcircle
Encoding: 9679 9679 587
Width: 922
Flags: W
HStem: 221 713<292.824 631.094>
VStem: 104 714<407.906 745.646>
LayerCount: 2
Fore
SplineSet
461 934 m 0
 663 934 818 770 818 578 c 0
 818 377 658 221 461 221 c 0
 258 221 104 381 104 578 c 0
 104 763 251 934 461 934 c 0
EndSplineSet
EndChar

StartChar: bulletinverse
Encoding: 9688 9688 588
Width: 922
Flags: W
HStem: 93.0996 233.28<349.727 573.114> 653.62 233.28<348.385 573.674>
VStem: 63 234<377.921 601.629> 624 233<379.634 603.318>
LayerCount: 2
Fore
SplineSet
63 93.0996 m 1
 63 886.9 l 1
 857 886.9 l 1
 857 93.0996 l 1
 63 93.0996 l 1
460 653.62 m 256
 372.166 653.62 297 584.433 297 490 c 0
 297 394.433 375.638 326.38 460 326.38 c 0
 550.48 326.38 624 398.748 624 490 c 0
 624 581.479 551.93 653.62 460 653.62 c 256
EndSplineSet
EndChar

StartChar: whitecircleinverse
Encoding: 9689 9689 589
Width: 922
Flags: W
HStem: 110 111<289.809 635.959> 371 413<335.607 588.433> 934 111<293.797 632.866>
VStem: 0 105<406.695 749.753> 255 413<448.029 702.431> 818 104<402.264 747.094>
LayerCount: 2
Fore
SplineSet
0 110 m 1
 0 1045 l 1
 922 1045 l 1
 922 110 l 1
 0 110 l 1
461 934 m 0
 270 934 105 780 105 577 c 0
 105 379 261 221 461 221 c 0
 652 221 818 369 818 577 c 0
 818 774 662 934 461 934 c 0
462 784 m 0
 577 784 668 691 668 577 c 0
 668 459 574 371 462 371 c 0
 349 371 255 459 255 577 c 0
 255 695 351 784 462 784 c 0
EndSplineSet
EndChar

StartChar: whitebullet
Encoding: 9702 9702 590
Width: 922
Flags: W
HStem: 406 113<368.896 552.757> 754 113<368.685 552.223>
VStem: 230 113<545.062 727.979> 579 112<546.84 727.446>
LayerCount: 2
Fore
SplineSet
691 637 m 0
 691 499 580 406 460 406 c 256
 333 406 230 507 230 637 c 0
 230 765 332 867 460 867 c 0
 591 867 691 764 691 637 c 0
579 637 m 0
 579 705 524 754 460 754 c 256
 399 754 343 707 343 637 c 0
 343 566 399 519 460 519 c 256
 526 519 579 571 579 637 c 0
EndSplineSet
EndChar

StartChar: smileface
Encoding: 9786 9786 591
Width: 922
Flags: W
HStem: 124 126<298.564 622.839> 338 54<371.617 548.201> 608 114<255.697 366.296 555.643 665.674> 919 126<293.127 624.394>
VStem: -0 127<417.754 749.129> 254 114<609.589 720.417> 554 113<609.487 720.519> 795 126<419.528 752.828>
LayerCount: 2
Fore
SplineSet
921 584 m 0
 921 327 719 124 460 124 c 0
 202 124 -0 329 -0 584 c 0
 -0 850 212 1045 460 1045 c 0
 719 1045 921 841 921 584 c 0
795 584 m 0
 795 771 649 919 460 919 c 0
 272 919 127 770 127 584 c 0
 127 390 282 250 460 250 c 0
 642 250 795 392 795 584 c 0
368 666 m 256
 368 634 343 608 310 608 c 256
 278 608 254 636 254 666 c 256
 254 694 277 722 310 722 c 256
 344 722 368 695 368 666 c 256
667 666 m 256
 667 634 644 608 612 608 c 256
 578 608 554 634 554 666 c 256
 554 696 577 722 612 722 c 256
 644 722 667 696 667 666 c 256
280 458 m 1
 319 480 l 1
 351 422 398 392 460 392 c 256
 523 392 570 422 602 480 c 1
 641 458 l 1
 600 378 539 338 460 338 c 0
 363 338 310 401 280 458 c 1
EndSplineSet
EndChar

StartChar: invsmileface
Encoding: 9787 9787 592
Width: 922
Flags: W
HStem: 124 171<330.15 591.942> 738 307<261.901 501.505 421.958 661.515>
VStem: -0 226<494.273 736.313> 343 236<622.894 736.048> 695 226<493.852 734.781>
LayerCount: 2
Fore
SplineSet
921 584 m 0
 921 327 719 124 460 124 c 0
 202 124 -0 329 -0 584 c 0
 -0 850 212 1045 460 1045 c 0
 719 1045 921 841 921 584 c 0
343 680 m 256
 343 710 318 738 284 738 c 256
 250 738 226 709 226 680 c 256
 226 650 251 621 284 621 c 256
 317 621 343 648 343 680 c 256
695 680 m 256
 695 711 672 738 638 738 c 256
 603 738 579 711 579 680 c 256
 579 648 604 621 638 621 c 256
 671 621 695 648 695 680 c 256
248 436 m 1
 283 369 346 295 460 295 c 0
 575 295 637 368 673 436 c 1
 627 462 l 1
 589 393 534 358 460 358 c 256
 387 358 332 393 294 462 c 1
 248 436 l 1
EndSplineSet
Validated: 3073
EndChar

StartChar: compass
Encoding: 9788 9788 593
Width: 922
Flags: W
HStem: 448 46<0 162 760 922> 722 47<486 563.283>
VStem: 162 48<494 578.675> 436 50<10 173 769 932> 710 50<363.517 448 492 580.419>
DStem2: 125 839 95 802 0.707613 -0.7066<4.91579 197.993 796.168 991.33> 95 139 127 106 0.708621 0.705589<0 194.565 792.769 988.636>
LayerCount: 2
Fore
SplineSet
436 932 m 1
 486 932 l 1
 486 769 l 1
 555 769 606 738 654 701 c 1
 795 838 l 1
 828 804 l 1
 690 665 l 1
 734 607 760 549 760 492 c 1
 922 492 l 1
 922 448 l 1
 760 448 l 1
 753 388 730 330 691 280 c 1
 828 137 l 1
 793 105 l 1
 654 242 l 1
 598 200 556 181 486 173 c 1
 486 10 l 1
 436 10 l 1
 436 173 l 1
 373 182 318 205 269 240 c 1
 127 106 l 1
 95 139 l 1
 232 278 l 1
 192 329 169 385 162 448 c 1
 -0 448 l 1
 -0 494 l 1
 162 494 l 1
 162 558 191 614 231 663 c 1
 95 802 l 1
 125 839 l 1
 268 702 l 1
 325 741 382 763 436 769 c 1
 436 932 l 1
460 722 m 256
 316 722 210 607 210 471 c 0
 210 332 318 221 460 221 c 256
 604 221 710 335 710 471 c 0
 710 611 599 722 460 722 c 256
EndSplineSet
Validated: 3073
EndChar

StartChar: female
Encoding: 9792 9792 594
Width: 922
Flags: W
HStem: 343 69<175 426 499 747> 577 81<346.207 426 499 579.178> 1069 84<343.449 581.435>
VStem: 183 79<741.948 982.372> 426 73<80 343 412 577> 661 80<741.559 986.112>
LayerCount: 2
Fore
SplineSet
426 577 m 1
 287 597 183 715 183 862 c 0
 183 1037 317 1153 462 1153 c 0
 608 1153 741 1035 741 862 c 0
 741 704 628 594 499 577 c 1
 499 412 l 1
 747 412 l 1
 747 343 l 1
 499 343 l 1
 499 80 l 1
 426 80 l 1
 426 343 l 1
 175 343 l 1
 175 412 l 1
 426 412 l 1
 426 577 l 1
461 1069 m 0
 351 1069 262 979 262 864 c 256
 262 747 352 658 461 658 c 256
 568 658 661 744 661 864 c 256
 661 983 569 1069 461 1069 c 0
EndSplineSet
Validated: 3073
EndChar

StartChar: male
Encoding: 9794 9794 595
Width: 922
Flags: W
HStem: 250 75<211.388 439.888> 750 75<207.521 441.935>
VStem: 42 76<417.863 660.889> 531 75<414.96 660.222>
DStem2: 474 782 525 740 0.693164 0.72078<5.0786 360.117>
LayerCount: 2
Fore
SplineSet
474 782 m 1
 725 1043 l 1
 673 1069 516 1124 516 1129 c 1
 537 1153 l 9
 864 1153 l 0
 880 1138 l 0
 880 793 l 273
 857 772 l 1
 852 772 795 945 771 996 c 1
 525 740 l 1
 579 686 606 622 606 548 c 0
 606 378 478 250 323 250 c 256
 162 250 42 381 42 535 c 0
 42 694 164 825 325 825 c 0
 371 825 420 811 474 782 c 1
325 750 m 0
 209 750 118 657 118 538 c 256
 118 415 216 325 325 325 c 256
 431 325 531 408 531 538 c 0
 531 663 434 750 325 750 c 0
EndSplineSet
Validated: 3073
EndChar

StartChar: spade
Encoding: 9824 9824 596
Width: 922
Flags: W
HStem: 152 28<168 272.283 656.397 754>
VStem: 456 14<417.894 503>
LayerCount: 2
Fore
SplineSet
461 1079 m 1
 532 784 826 737 826 527 c 0
 826 428 751 359 662 359 c 0
 584 359 520 407 470 503 c 1
 470 244 613 180 754 180 c 1
 759 152 l 1
 162 152 l 1
 168 180 l 1
 399 180 456 334 456 503 c 1
 409 401 338 359 260 359 c 0
 170 359 95 432 95 524 c 0
 95 746 393 770 461 1079 c 1
EndSplineSet
Validated: 3073
EndChar

StartChar: club
Encoding: 9827 9827 597
Width: 922
Flags: W
HStem: 151 25<150 211.374 718.551 773> 355 416<78.7852 299.617 619.973 842.203>
VStem: 252 415<744.613 993.475> 453 15<445.978 533>
LayerCount: 2
Fore
SplineSet
779 151 m 1xd0
 145 151 l 1
 150 176 l 1
 170 180 453 204 453 498 c 0
 453 506 453 517 453 533 c 1xd0
 397 418 305 355 207 355 c 0
 101 355 -0 434 -0 564 c 0
 -0 700 103 771 179 771 c 0
 210 771 251 758 302 732 c 1
 260 802 252 827 252 869 c 0
 252 980 336 1071 459 1071 c 0
 579 1071 667 981 667 871 c 0xe0
 667 826 650 780 615 732 c 1
 686 765 696 771 737 771 c 0
 835 771 922 687 922 567 c 0
 922 444 827 355 717 355 c 0
 561 355 483 508 468 533 c 1
 468 244 629 205 773 176 c 1
 779 151 l 1xd0
EndSplineSet
Validated: 3073
EndChar

StartChar: heart
Encoding: 9829 9829 598
Width: 922
Flags: W
LayerCount: 2
Fore
SplineSet
463 122 m 1
 381 425 79 615 79 816 c 0
 79 925 159 999 260 999 c 0
 341 999 418 954 463 824 c 1
 499 954 583 1000 661 1000 c 0
 767 1000 842 917 842 825 c 0
 842 592 542 425 463 122 c 1
EndSplineSet
Validated: 3073
EndChar

StartChar: diamond
Encoding: 9830 9830 599
Width: 922
Flags: W
LayerCount: 2
Fore
SplineSet
460 1068 m 1
 535 891 675 714 805 600 c 1
 696 516 544 314 460 130 c 1
 392 284 228 516 118 600 c 1
 249 714 363 864 460 1068 c 1
EndSplineSet
Validated: 3073
EndChar

StartChar: musicalnote
Encoding: 9834 9834 600
Width: 922
Flags: W
HStem: 135.78 236.52<235.114 404.073> 1026.22 20G<419 480>
VStem: 183 297<213.517 321.525> 419 61<357.72 767.58 964.41 1046.22> 626 67<401.088 670.848>
LayerCount: 2
Fore
SplineSet
419 357.72 m 1xd8
 419 1046.22 l 1
 480 1046.22 l 1
 480 964.41 l 1
 605 809.7 l 2
 650.497 745.549 693 655.152 693 552.12 c 0
 693 468.69 667 395.79 616 332.61 c 1
 578 332.61 l 1
 610 403.08 626 470.31 626 534.3 c 256
 626 673.875 542.885 757.393 480 767.58 c 1
 480 357.72 l 2xd8
 480 225.628 394.263 135.78 276 135.78 c 0
 217.177 135.78 183 163.242 183 215.97 c 0xe8
 183 296.347 252.731 372.3 346 372.3 c 0
 367.913 372.3 391.886 368.702 419 357.72 c 1xd8
EndSplineSet
Validated: 3073
EndChar

StartChar: musicalnotedbl
Encoding: 9835 9835 601
Width: 922
Flags: W
HStem: 71 235<87.9738 255.579> 147 235<593.354 761.757> 1025 20G<760.793 839>
VStem: 272 61<292 611 714 807> 779 60<368 732 835 928>
DStem2: 272 900 333 807 0.968822 0.247759<36.0566 498.13> 333 714 333 611 0.965113 0.261835<0 435.153>
LayerCount: 2
Fore
SplineSet
839 368 m 2xb8
 839 223 740 147 636 147 c 0
 558 147 543 195 543 227 c 0
 543 307 612 382 706 382 c 0x78
 733 382 757 376 779 368 c 1
 779 732 l 1
 333 611 l 1
 333 292 l 2
 333 147 234 71 129 71 c 0
 51 71 36 119 36 151 c 0
 36 230 105 306 200 306 c 0
 227 306 253 301 272 292 c 1
 272 900 l 1
 839 1045 l 1
 839 368 l 2xb8
333 714 m 1
 779 835 l 1
 779 928 l 1
 333 807 l 1
 333 714 l 1
EndSplineSet
Validated: 3073
EndChar

StartChar: arrowboth
Encoding: 8596 8596 602
Width: 922
VWidth: 1708
Flags: W
LayerCount: 2
Fore
SplineSet
371 960 m 29
 50 600 l 29
 371 240 l 29
0 -99 m 5
 0 1224 l 5
 922 1224 l 5
 922 -99 l 5
 0 -99 l 5
551 960 m 29
 872 600 l 29
 551 240 l 29
872 600 m 29
 50 600 l 29
EndSplineSet
EndChar

StartChar: arrowbothv
Encoding: 8597 8597 603
Width: 922
VWidth: 1708
Flags: W
LayerCount: 2
Fore
SplineSet
821 690 m 29
 461 1061 l 29
 101 690 l 29
0 87 m 5
 0 1113 l 5
 922 1113 l 5
 922 87 l 5
 0 87 l 5
821 510 m 29
 461 139 l 29
 101 510 l 29
461 139 m 29
 461 1061 l 29
EndSplineSet
EndChar

StartChar: updownarrowbar
Encoding: 8616 8616 604
Width: 922
VWidth: 1708
Flags: W
LayerCount: 2
Fore
SplineSet
50 58 m 25
 872 58 l 25
821 690 m 25
 461 1061 l 25
 101 690 l 25
0 -443 m 1
 0 1113 l 1
 922 1113 l 1
 922 -443 l 1
 0 -443 l 1
821 510 m 25
 461 139 l 25
 101 510 l 25
461 139 m 25
 461 1061 l 25
EndSplineSet
EndChar

StartChar: nsuperior
Encoding: 8319 8319 605
Width: 922
VWidth: 1947
Flags: MW
LayerCount: 2
Fore
SplineSet
688 544 m 25
 688 1103 l 18
 688 1255 622 1332 469 1332 c 10
 453 1332 l 18
 319 1332 234 1140 234 1026 c 10
 234 955 l 25
234 1424 m 25
 234 544 l 25
EndSplineSet
EndChar

StartChar: radical
Encoding: 8730 8730 606
Width: 922
VWidth: 1708
Flags: MW
LayerCount: 2
Fore
SplineSet
0 -25 m 1
 0 1633 l 1
 922 1633 l 1
 922 -25 l 1
 0 -25 l 1
832 1755 m 25
 511 37 l 25
 254 995 l 25
 48 995 l 25
EndSplineSet
EndChar

StartChar: intersection
Encoding: 8745 8745 608
Width: 922
Flags: MW
LayerCount: 2
Fore
SplineSet
182 0 m 25
 182 1063 l 18
 182 1197 317 1333 452 1333 c 10
 470 1333 l 18
 605 1333 740 1197 740 1063 c 10
 740 0 l 25
EndSplineSet
EndChar

StartChar: infinity
Encoding: 8734 8734 609
Width: 922
Flags: MW
LayerCount: 2
Fore
SplineSet
646 843 m 3
 775.5 843 826 720.176 826 618 c 3
 826 521.999 771.049 392 646 392 c 3
 520.496 392 461 511.995 461 618 c 3
 461 717 529.5 843 646 843 c 3
276 843 m 3
 157.491 843 96 718.679 96 618 c 3
 96 526.5 151.499 392 276 392 c 3
 402.016 392 461 511.971 461 618 c 3
 461 717 397.537 843 276 843 c 3
EndSplineSet
EndChar

StartChar: almostequal
Encoding: 8776 8776 610
Width: 922
VWidth: 1947
Flags: MW
LayerCount: 2
Fore
SplineSet
139 340 m 17
 170 448 244 517 317 517 c 10
 332 517 l 18
 361.255 517 390.521 499.637 417 473.3 c 2
 510 380.8 l 2
 534.729 356.204 562.589 341 590 341 c 10
 605 341 l 18
 686 341 754 426 784 517 c 9
139 800 m 17
 170 908 244 977 317 977 c 10
 332 977 l 18
 361.255 977 390.521 959.637 417 933.3 c 2
 510 840.8 l 2
 534.729 816.204 562.589 801 590 801 c 10
 605 801 l 18
 686 801 754 886 784 977 c 9
EndSplineSet
EndChar

StartChar: equivalence
Encoding: 8801 8801 611
Width: 922
Flags: MW
LayerCount: 2
Fore
SplineSet
50 980 m 25
 872 980 l 25
50 600 m 25
 872 600 l 25
50 220 m 25
 872 220 l 25
EndSplineSet
EndChar

StartChar: lessequal
Encoding: 8804 8804 612
Width: 922
VWidth: 1708
Flags: MW
LayerCount: 2
Fore
SplineSet
-81 619 m 25
 902 114 l 25
90 1612 m 1
 832 1612 l 1
 832 -150 l 1
 90 -150 l 1
 90 1612 l 1
902 1246 m 25
 182 877 l 25
 902 507 l 25
EndSplineSet
EndChar

StartChar: greaterequal
Encoding: 8805 8805 613
Width: 922
VWidth: 1708
Flags: MW
LayerCount: 2
Fore
SplineSet
1003 619 m 25
 20 114 l 25
90 1612 m 1
 832 1612 l 1
 832 -150 l 1
 90 -150 l 1
 90 1612 l 1
20 1246 m 25
 740 877 l 25
 20 507 l 25
EndSplineSet
EndChar

StartChar: revlogicalnot
Encoding: 8976 8976 614
Width: 922
VWidth: 1708
Flags: MW
LayerCount: 2
Fore
SplineSet
872 600 m 25
 182 600 l 25
 182 246 l 25
EndSplineSet
EndChar

StartChar: integraltp
Encoding: 8992 8992 615
Width: 922
Flags: MW
LayerCount: 2
Fore
SplineSet
461 -615 m 25
 461 1414 l 18
 461 1489.5 511.5 1548 600 1548 c 2
 610 1548 l 2
 693 1548 740 1489.5 740 1414 c 9
 740 1308 l 25
EndSplineSet
EndChar

StartChar: integralbt
Encoding: 8993 8993 616
Width: 922
Flags: MW
LayerCount: 2
Fore
SplineSet
461 1775 m 29
 461 -324 l 18
 461 -399.5 410.5 -458 322 -458 c 2
 312 -458 l 2
 229 -458 182 -399.5 182 -324 c 9
 182 -218 l 25
EndSplineSet
EndChar

StartChar: exclam
Encoding: -1 33 617
Width: 922
Flags: MW
LayerCount: 2
Fore
SplineSet
585 95 m 0
 585 24 526 -23 460 -23 c 0
 398 -23 336 24 336 95 c 0
 336 156 388 213 460 213 c 0
 525 213 585 166 585 95 c 0
457 1418 m 0
 512 1418 583 1381 583 1273 c 2
 553 384 l 1
 371 384 l 1
 341 1274 l 2
 341 1383 411 1418 457 1418 c 0
EndSplineSet
EndChar
